<?xml version="1.0" encoding="utf-8"?>
<!-- created with bpmn-js / http://bpmn.io -->
<!DOCTYPE svg PUBLIC "-//W3C//DTD SVG 1.1//EN" "http://www.w3.org/Graphics/SVG/1.1/DTD/svg11.dtd">
<svg xmlns="http://www.w3.org/2000/svg" xmlns:xlink="http://www.w3.org/1999/xlink" width="1162" height="637" viewBox="15 11 1162 637" version="1.1"><defs><marker id="sequenceflow-end-white-black-0dtpps1y7yktp93v6379k1kj7" viewBox="0 0 20 20" refX="11" refY="10" markerWidth="10" markerHeight="10" orient="auto"><path d="M 1 5 L 11 10 L 1 15 Z" style="fill: black; stroke-width: 1px; stroke-linecap: round; stroke-dasharray: 10000, 1; stroke: black;"/></marker></defs><g class="djs-group"><g class="djs-element djs-shape" data-element-id="Participant_1qrz8wy" style="display: block;" transform="translate(21 17)"><g class="djs-visual"><rect x="0" y="0" width="1150" height="625" rx="0" ry="0" style="stroke: black; stroke-width: 2px; fill: white; fill-opacity: 0.95;"/><polyline points="30,0 30,625 " style="fill: none; stroke: black; stroke-width: 2px;"/><text lineHeight="1.2" class="djs-label" style="font-family: Arial, sans-serif; font-size: 12px; font-weight: normal; fill: black;" transform="matrix(-1.83697e-16 -1 1 -1.83697e-16 0 625)"><tspan x="272.6484375" y="18.6">Proxy handling</tspan></text></g><rect x="0" y="0" width="1150" height="625" class="djs-hit" style="fill: none; stroke-opacity: 0; stroke: white; stroke-width: 15px;"/><rect x="-6" y="-6" width="1162" height="637" class="djs-outline" style="fill: none;"/></g><g class="djs-children"><g class="djs-group"><g class="djs-element djs-shape" data-element-id="Lane_1sjoi81" style="display: block;" transform="translate(51 17)"><g class="djs-visual"><rect x="0" y="0" width="1120" height="170" rx="0" ry="0" style="stroke: black; stroke-width: 2px; fill: white; fill-opacity: 0.35;"/><text lineHeight="1.2" class="djs-label" style="font-family: Arial, sans-serif; font-size: 12px; font-weight: normal; fill: black;" transform="matrix(-1.83697e-16 -1 1 -1.83697e-16 0 170)"><tspan x="70.4921875" y="18.6">Voter</tspan></text></g><rect x="0" y="0" width="1120" height="170" class="djs-hit" style="fill: none; stroke-opacity: 0; stroke: white; stroke-width: 15px;"/><rect x="-6" y="-6" width="1132" height="182" class="djs-outline" style="fill: none;"/></g></g><g class="djs-group"><g class="djs-element djs-shape" data-element-id="Lane_094w2ox" style="display: block;" transform="translate(51 187)"><g class="djs-visual"><rect x="0" y="0" width="1120" height="455" rx="0" ry="0" style="stroke: black; stroke-width: 2px; fill: white; fill-opacity: 0.35;"/><text lineHeight="1.2" class="djs-label" style="font-family: Arial, sans-serif; font-size: 12px; font-weight: normal; fill: black;" transform="matrix(-1.83697e-16 -1 1 -1.83697e-16 0 455)"><tspan x="209.328125" y="18.6">Server</tspan></text></g><rect x="0" y="0" width="1120" height="455" class="djs-hit" style="fill: none; stroke-opacity: 0; stroke: white; stroke-width: 15px;"/><rect x="-6" y="-6" width="1132" height="467" class="djs-outline" style="fill: none;"/></g></g><g class="djs-group"><g class="djs-element djs-shape" data-element-id="TextAnnotation_107nd7b" style="display: block;" transform="translate(537 295)"><g class="djs-visual"><rect x="0" y="0" width="100" height="82" rx="0" ry="0" style="stroke: none; stroke-width: 2px; fill: none;"/><path d="m 0, 0 m 10,0 l -10,0 l 0,82 l 10,0" style="fill: none; stroke-width: 2px; stroke: black;"/><text lineHeight="1.2" class="djs-label" style="font-family: Arial, sans-serif; font-size: 12px; font-weight: normal; fill: black;"><tspan x="5" y="15.799999999999999">store </tspan><tspan x="5" y="30.199999999999996">checksums </tspan><tspan x="5" y="44.599999999999994">seperately from</tspan><tspan x="5" y="58.99999999999999">delegations and</tspan><tspan x="5" y="73.39999999999999">anonymously</tspan></text></g><rect x="0" y="0" width="100" height="82" class="djs-hit" style="fill: none; stroke-opacity: 0; stroke: white; stroke-width: 15px;"/><rect x="-6" y="-6" width="112" height="94" class="djs-outline" style="fill: none;"/></g></g><g class="djs-group"><g class="djs-element djs-connection" data-element-id="SequenceFlow_1aiguy8" style="display: block;"><g class="djs-visual"><path d="m  136,111L136,224 " style="fill: none; stroke-width: 2px; stroke: black; stroke-linejoin: round; marker-end: url('#sequenceflow-end-white-black-0dtpps1y7yktp93v6379k1kj7');"/></g><polyline points="136,111 136,224 " class="djs-hit" style="fill: none; stroke-opacity: 0; stroke: white; stroke-width: 15px;"/><rect x="130" y="105" width="12" height="125" class="djs-outline" style="fill: none;"/></g></g><g class="djs-group"><g class="djs-element djs-connection" data-element-id="SequenceFlow_0oywh47" style="display: block;"><g class="djs-visual"><path d="m  136,304L136,350 " style="fill: none; stroke-width: 2px; stroke: black; stroke-linejoin: round; marker-end: url('#sequenceflow-end-white-black-0dtpps1y7yktp93v6379k1kj7');"/></g><polyline points="136,304 136,350 " class="djs-hit" style="fill: none; stroke-opacity: 0; stroke: white; stroke-width: 15px;"/><rect x="130" y="298" width="12" height="58" class="djs-outline" style="fill: none;"/></g></g><g class="djs-group"><g class="djs-element djs-connection" data-element-id="SequenceFlow_19t3vvf" style="display: block;"><g class="djs-visual"><path d="m  444,224L444,133 " style="fill: none; stroke-width: 2px; stroke: black; stroke-linejoin: round; marker-end: url('#sequenceflow-end-white-black-0dtpps1y7yktp93v6379k1kj7');"/></g><polyline points="444,224 444,133 " class="djs-hit" style="fill: none; stroke-opacity: 0; stroke: white; stroke-width: 15px;"/><rect x="438" y="127" width="12" height="103" class="djs-outline" style="fill: none;"/></g></g><g class="djs-group"><g class="djs-element djs-connection" data-element-id="SequenceFlow_19w06q3" style="display: block;"><g class="djs-visual"><path d="m  494,93L710,93 " style="fill: none; stroke-width: 2px; stroke: black; stroke-linejoin: round; marker-end: url('#sequenceflow-end-white-black-0dtpps1y7yktp93v6379k1kj7');"/></g><polyline points="494,93 710,93 " class="djs-hit" style="fill: none; stroke-opacity: 0; stroke: white; stroke-width: 15px;"/><rect x="488" y="87" width="228" height="12" class="djs-outline" style="fill: none;"/></g></g><g class="djs-group"><g class="djs-element djs-connection" data-element-id="SequenceFlow_1ltiy4n" style="display: block;"><g class="djs-visual"><path d="m  294,304L294,384 L394,384 " style="fill: none; stroke-width: 2px; stroke: black; stroke-linejoin: round; marker-end: url('#sequenceflow-end-white-black-0dtpps1y7yktp93v6379k1kj7');"/></g><polyline points="294,304 294,384 394,384 " class="djs-hit" style="fill: none; stroke-opacity: 0; stroke: white; stroke-width: 15px;"/><rect x="288" y="298" width="112" height="92" class="djs-outline" style="fill: none;"/></g></g><g class="djs-group"><g class="djs-element djs-connection" data-element-id="SequenceFlow_0ckxaqk" style="display: block;"><g class="djs-visual"><path d="m  444,344L444,304 " style="fill: none; stroke-width: 2px; stroke: black; stroke-linejoin: round; marker-end: url('#sequenceflow-end-white-black-0dtpps1y7yktp93v6379k1kj7');"/></g><polyline points="444,344 444,304 " class="djs-hit" style="fill: none; stroke-opacity: 0; stroke: white; stroke-width: 15px;"/><rect x="438" y="298" width="12" height="52" class="djs-outline" style="fill: none;"/></g></g><g class="djs-group"><g class="djs-element djs-connection" data-element-id="SequenceFlow_1t7kiys" style="display: block;"><g class="djs-visual"><path d="m  294,111L294,224 " style="fill: none; stroke-width: 2px; stroke: black; stroke-linejoin: round; marker-end: url('#sequenceflow-end-white-black-0dtpps1y7yktp93v6379k1kj7');"/></g><polyline points="294,111 294,224 " class="djs-hit" style="fill: none; stroke-opacity: 0; stroke: white; stroke-width: 15px;"/><rect x="288" y="105" width="12" height="125" class="djs-outline" style="fill: none;"/></g></g><g class="djs-group"><g class="djs-element djs-connection" data-element-id="SequenceFlow_0ubts81" style="display: block;"><g class="djs-visual"><path d="m  1005,93L1069,93 " style="fill: none; stroke-width: 2px; stroke: black; stroke-linejoin: round; marker-end: url('#sequenceflow-end-white-black-0dtpps1y7yktp93v6379k1kj7');"/></g><polyline points="1005,93 1069,93 " class="djs-hit" style="fill: none; stroke-opacity: 0; stroke: white; stroke-width: 15px;"/><rect x="999" y="87" width="76" height="12" class="djs-outline" style="fill: none;"/></g></g><g class="djs-group"><g class="djs-element djs-connection" data-element-id="SequenceFlow_028a8wg" style="display: block;"><g class="djs-visual"><path d="m  728,111L728,224 " style="fill: none; stroke-width: 2px; stroke: black; stroke-linejoin: round; marker-end: url('#sequenceflow-end-white-black-0dtpps1y7yktp93v6379k1kj7');"/></g><polyline points="728,111 728,224 " class="djs-hit" style="fill: none; stroke-opacity: 0; stroke: white; stroke-width: 15px;"/><rect x="722" y="105" width="12" height="125" class="djs-outline" style="fill: none;"/></g></g><g class="djs-group"><g class="djs-element djs-connection" data-element-id="SequenceFlow_1c8n6hv" style="display: block;"><g class="djs-visual"><path d="m  728,304L728,358 " style="fill: none; stroke-width: 2px; stroke: black; stroke-linejoin: round; marker-end: url('#sequenceflow-end-white-black-0dtpps1y7yktp93v6379k1kj7');"/></g><polyline points="728,304 728,358 " class="djs-hit" style="fill: none; stroke-opacity: 0; stroke: white; stroke-width: 15px;"/><rect x="722" y="298" width="12" height="66" class="djs-outline" style="fill: none;"/></g></g><g class="djs-group"><g class="djs-element djs-connection" data-element-id="SequenceFlow_10fckq8" style="display: block;"><g class="djs-visual"><path d="m  778,264L825,264 " style="fill: none; stroke-width: 2px; stroke: black; stroke-linejoin: round; marker-end: url('#sequenceflow-end-white-black-0dtpps1y7yktp93v6379k1kj7');"/></g><polyline points="778,264 825,264 " class="djs-hit" style="fill: none; stroke-opacity: 0; stroke: white; stroke-width: 15px;"/><rect x="772" y="258" width="59" height="12" class="djs-outline" style="fill: none;"/></g></g><g class="djs-group"><g class="djs-element djs-connection" data-element-id="SequenceFlow_042y3ut" style="display: block;"><g class="djs-visual"><path d="m  1069,358L1069,204 L955,204 L955,133 " style="fill: none; stroke-width: 2px; stroke: black; stroke-linejoin: round; marker-end: url('#sequenceflow-end-white-black-0dtpps1y7yktp93v6379k1kj7');"/></g><polyline points="1069,358 1069,204 955,204 955,133 " class="djs-hit" style="fill: none; stroke-opacity: 0; stroke: white; stroke-width: 15px;"/><rect x="949" y="127" width="126" height="237" class="djs-outline" style="fill: none;"/></g></g><g class="djs-group"><g class="djs-element djs-connection" data-element-id="SequenceFlow_1b594kq" style="display: block;"><g class="djs-visual"><path d="m  925,264L976,264 " style="fill: none; stroke-width: 2px; stroke: black; stroke-linejoin: round; marker-end: url('#sequenceflow-end-white-black-0dtpps1y7yktp93v6379k1kj7');"/></g><polyline points="925,264 976,264 " class="djs-hit" style="fill: none; stroke-opacity: 0; stroke: white; stroke-width: 15px;"/><rect x="919" y="258" width="63" height="12" class="djs-outline" style="fill: none;"/></g></g><g class="djs-group"><g class="djs-element djs-shape" data-element-id="StartEvent_1lr9dj6" style="display: block;" transform="translate(118 75)"><g class="djs-visual"><circle cx="18" cy="18" r="18" style="stroke: black; stroke-width: 2px; fill: white; fill-opacity: 0.95;"/></g><rect x="0" y="0" width="36" height="36" class="djs-hit" style="fill: none; stroke-opacity: 0; stroke: white; stroke-width: 15px;"/><rect x="-6" y="-6" width="48" height="48" class="djs-outline" style="fill: none;"/></g></g><g class="djs-group"><g class="djs-element djs-shape" data-element-id="Task_0ww46au" style="display: block;" transform="translate(86 224)"><g class="djs-visual"><rect x="0" y="0" width="100" height="80" rx="10" ry="10" style="stroke: black; stroke-width: 2px; fill: white; fill-opacity: 0.95;"/><text lineHeight="1.2" class="djs-label" style="font-family: Arial, sans-serif; font-size: 12px; font-weight: normal; fill: black;"><tspan x="35" y="22">store </tspan><tspan x="15.4921875" y="36.4">checksum of </tspan><tspan x="5.484375" y="50.8">public proxy with</tspan><tspan x="32.1640625" y="65.19999999999999">user.id</tspan></text></g><rect x="0" y="0" width="100" height="80" class="djs-hit" style="fill: none; stroke-opacity: 0; stroke: white; stroke-width: 15px;"/><rect x="-6" y="-6" width="112" height="92" class="djs-outline" style="fill: none;"/></g></g><g class="djs-group"><g class="djs-element djs-shape" data-element-id="EndEvent_1xaxjoe" style="display: block;" transform="translate(118 350)"><g class="djs-visual"><circle cx="18" cy="18" r="18" style="stroke: black; stroke-width: 4px; fill: white; fill-opacity: 0.95;"/></g><rect x="0" y="0" width="36" height="36" class="djs-hit" style="fill: none; stroke-opacity: 0; stroke: white; stroke-width: 15px;"/><rect x="-6" y="-6" width="48" height="48" class="djs-outline" style="fill: none;"/></g></g><g class="djs-group"><g class="djs-element djs-shape" data-element-id="Task_1jclnlt" style="display: block;" transform="translate(394 53)"><g class="djs-visual"><rect x="0" y="0" width="100" height="80" rx="10" ry="10" style="stroke: black; stroke-width: 2px; fill: white; fill-opacity: 0.95;"/><text lineHeight="1.2" class="djs-label" style="font-family: Arial, sans-serif; font-size: 12px; font-weight: normal; fill: black;"><tspan x="17.828125" y="29.200000000000003">receive own </tspan><tspan x="23.484375" y="43.6">delegated </tspan><tspan x="22.9921875" y="58">checksum</tspan></text><path d="m 6.3,5.6000000000000005 l 0,12.6 l 18.900000000000002,0 l 0,-12.6 z l 9.450000000000001,5.4 l 9.450000000000001,-5.4" style="fill: white; stroke-width: 1px; stroke: black;"/></g><rect x="0" y="0" width="100" height="80" class="djs-hit" style="fill: none; stroke-opacity: 0; stroke: white; stroke-width: 15px;"/><rect x="-6" y="-6" width="112" height="92" class="djs-outline" style="fill: none;"/></g></g><g class="djs-group"><g class="djs-element djs-shape" data-element-id="Task_0ewkb03" style="display: block;" transform="translate(394 344)"><g class="djs-visual"><rect x="0" y="0" width="100" height="80" rx="10" ry="10" style="stroke: black; stroke-width: 2px; fill: white; fill-opacity: 0.95;"/><text lineHeight="1.2" class="djs-label" style="font-family: Arial, sans-serif; font-size: 12px; font-weight: normal; fill: black;"><tspan x="12.15625" y="22">store that own </tspan><tspan x="16.9921875" y="36.4">checksum is </tspan><tspan x="16.8125" y="50.8">delegated to </tspan><tspan x="17.328125" y="65.19999999999999">checksum P</tspan></text></g><rect x="0" y="0" width="100" height="80" class="djs-hit" style="fill: none; stroke-opacity: 0; stroke: white; stroke-width: 15px;"/><rect x="-6" y="-6" width="112" height="92" class="djs-outline" style="fill: none;"/></g></g><g class="djs-group"><g class="djs-element djs-shape" data-element-id="Task_0nyymck" style="display: block;" transform="translate(394 224)"><g class="djs-visual"><rect x="0" y="0" width="100" height="80" rx="10" ry="10" style="stroke: black; stroke-width: 2px; fill: white; fill-opacity: 0.95;"/><text lineHeight="1.2" class="djs-label" style="font-family: Arial, sans-serif; font-size: 12px; font-weight: normal; fill: black;"><tspan x="5.640625" y="22">store delegation:</tspan><tspan x="10.9921875" y="36.4">P is now proxy </tspan><tspan x="11.15625" y="50.8">for voter in this </tspan><tspan x="37.828125" y="65.19999999999999">area</tspan></text></g><rect x="0" y="0" width="100" height="80" class="djs-hit" style="fill: none; stroke-opacity: 0; stroke: white; stroke-width: 15px;"/><rect x="-6" y="-6" width="112" height="92" class="djs-outline" style="fill: none;"/></g></g><g class="djs-group"><g class="djs-element djs-shape" data-element-id="Task_1di68kk" style="display: block;" transform="translate(244 224)"><g class="djs-visual"><rect x="0" y="0" width="100" height="80" rx="10" ry="10" style="stroke: black; stroke-width: 2px; fill: white; fill-opacity: 0.95;"/><text lineHeight="1.2" class="djs-label" style="font-family: Arial, sans-serif; font-size: 12px; font-weight: normal; fill: black;"><tspan x="19.6484375" y="14.799999999999999">fetch public </tspan><tspan x="15.4921875" y="29.199999999999996">checksum of </tspan><tspan x="16.828125" y="43.599999999999994">proxy or ask </tspan><tspan x="26.1640625" y="57.99999999999999">proxy for </tspan><tspan x="17.15625" y="72.39999999999999">confirmation</tspan></text></g><rect x="0" y="0" width="100" height="80" class="djs-hit" style="fill: none; stroke-opacity: 0; stroke: white; stroke-width: 15px;"/><rect x="-6" y="-6" width="112" height="92" class="djs-outline" style="fill: none;"/></g></g><g class="djs-group"><g class="djs-element djs-shape" data-element-id="Task_1cejzdd" style="display: block;" transform="translate(905 53)"><g class="djs-visual"><rect x="0" y="0" width="100" height="80" rx="10" ry="10" style="stroke: black; stroke-width: 2px; fill: white; fill-opacity: 0.95;"/><text lineHeight="1.2" class="djs-label" style="font-family: Arial, sans-serif; font-size: 12px; font-weight: normal; fill: black;"><tspan x="17.984375" y="14.799999999999999">check ballot </tspan><tspan x="7.984375" y="29.199999999999996">casted by proxy</tspan><tspan x="27" y="43.599999999999994">with own </tspan><tspan x="19.6484375" y="57.99999999999999">(delegated) </tspan><tspan x="22.9921875" y="72.39999999999999">checksum</tspan></text></g><rect x="0" y="0" width="100" height="80" class="djs-hit" style="fill: none; stroke-opacity: 0; stroke: white; stroke-width: 15px;"/><rect x="-6" y="-6" width="112" height="92" class="djs-outline" style="fill: none;"/></g></g><g class="djs-group"><g class="djs-element djs-shape" data-element-id="IntermediateThrowEvent_0tbkb6n" style="display: block;" transform="translate(710 75)"><g class="djs-visual"><circle cx="18" cy="18" r="18" style="stroke: black; stroke-width: 1px; fill: white; fill-opacity: 0.95;"/><circle cx="18" cy="18" r="15" style="stroke: black; stroke-width: 1px; fill: none;"/></g><rect x="0" y="0" width="36" height="36" class="djs-hit" style="fill: none; stroke-opacity: 0; stroke: white; stroke-width: 15px;"/><rect x="-6" y="-6" width="48" height="48" class="djs-outline" style="fill: none;"/></g></g><g class="djs-group"><g class="djs-element djs-shape" data-element-id="Task_1ods7w1" style="display: block;" transform="translate(678 224)"><g class="djs-visual"><rect x="0" y="0" width="100" height="80" rx="10" ry="10" style="stroke: black; stroke-width: 2px; fill: white; fill-opacity: 0.95;"/><text lineHeight="1.2" class="djs-label" style="font-family: Arial, sans-serif; font-size: 12px; font-weight: normal; fill: black;"><tspan x="8.8125" y="22">validate proxies</tspan><tspan x="20.9921875" y="36.4">voterToken </tspan><tspan x="16.484375" y="50.8">against valid </tspan><tspan x="19.9921875" y="65.19999999999999">checksums</tspan></text></g><rect x="0" y="0" width="100" height="80" class="djs-hit" style="fill: none; stroke-opacity: 0; stroke: white; stroke-width: 15px;"/><rect x="-6" y="-6" width="112" height="92" class="djs-outline" style="fill: none;"/></g></g><g class="djs-group"><g class="djs-element djs-shape" data-element-id="StartEvent_129fp33" style="display: block;" transform="translate(276 75)"><g class="djs-visual"><circle cx="18" cy="18" r="18" style="stroke: black; stroke-width: 2px; fill: white; fill-opacity: 0.95;"/></g><rect x="0" y="0" width="36" height="36" class="djs-hit" style="fill: none; stroke-opacity: 0; stroke: white; stroke-width: 15px;"/><rect x="-6" y="-6" width="48" height="48" class="djs-outline" style="fill: none;"/></g></g><g class="djs-group"><g class="djs-element djs-shape" data-element-id="StartEvent_1lr9dj6_label" style="display: block;" transform="translate(99 37.5)"><g class="djs-visual"><text lineHeight="1.2" class="djs-label" style="font-family: Arial, sans-serif; font-size: 11px; font-weight: normal; fill: black;"><tspan x="0" y="9.899999999999999">Become public </tspan><tspan x="4.53125" y="23.099999999999998">proxy in area</tspan></text></g><rect x="0" y="0" width="73" height="27" class="djs-hit" style="fill: none; stroke-opacity: 0; stroke: white; stroke-width: 15px;"/><rect x="-6" y="-6" width="85" height="39" class="djs-outline" style="fill: none;"/></g></g><g class="djs-group"><g class="djs-element djs-shape" data-element-id="EndEvent_1xaxjoe_label" style="display: block;" transform="translate(106 402)"><g class="djs-visual"><text lineHeight="1.2" class="djs-label" style="font-family: Arial, sans-serif; font-size: 11px; font-weight: normal; fill: black;"><tspan x="0" y="9.899999999999999">Voter now is </tspan><tspan x="0.109375" y="23.099999999999998">public proxy</tspan></text></g><rect x="0" y="0" width="60" height="27" class="djs-hit" style="fill: none; stroke-opacity: 0; stroke: white; stroke-width: 15px;"/><rect x="-6" y="-6" width="72" height="39" class="djs-outline" style="fill: none;"/></g></g><g class="djs-group"><g class="djs-element djs-shape" data-element-id="IntermediateThrowEvent_0tbkb6n_label" style="display: block;" transform="translate(691 38)"><g class="djs-visual"><text lineHeight="1.2" class="djs-label" style="font-family: Arial, sans-serif; font-size: 11px; font-weight: normal; fill: black;"><tspan x="0" y="9.899999999999999">Proxy casts his </tspan><tspan x="27.3359375" y="23.099999999999998">vote</tspan></text></g><rect x="0" y="0" width="75" height="27" class="djs-hit" style="fill: none; stroke-opacity: 0; stroke: white; stroke-width: 15px;"/><rect x="-6" y="-6" width="87" height="39" class="djs-outline" style="fill: none;"/></g></g><g class="djs-group"><g class="djs-element djs-shape" data-element-id="DataStoreReference_1g09fyt" style="display: block;" transform="translate(419 459)"><g class="djs-visual"><path d="m  0,6.65 l  0,36.885245901639344 c  1.639344262295082,8.196721311475411 47.540983606557376,8.196721311475411  49.18032786885246,0 l  0,-36.885245901639344 c -1.639344262295082,-8.196721311475411 -47.540983606557376,-8.196721311475411 -49.18032786885246,0c  1.639344262295082,8.196721311475411 47.540983606557376,8.196721311475411  49.18032786885246,0 m  -49.18032786885246,5.737704918032787c  1.639344262295082,8.196721311475411 47.540983606557376,8.196721311475411 49.18032786885246,0m  -49.18032786885246,5.737704918032787c  1.639344262295082,8.196721311475411 47.540983606557376,8.196721311475411  49.18032786885246,0" style="fill: white; stroke-width: 2px; stroke: black; fill-opacity: 0.95;"/></g><rect x="0" y="0" width="50" height="50" class="djs-hit" style="fill: none; stroke-opacity: 0; stroke: white; stroke-width: 15px;"/><rect x="-6" y="-6" width="62" height="62" class="djs-outline" style="fill: none;"/></g></g><g class="djs-group"><g class="djs-element djs-shape" data-element-id="DataStoreReference_16f6yxd" style="display: block;" transform="translate(562 459)"><g class="djs-visual"><path d="m  0,6.65 l  0,36.885245901639344 c  1.639344262295082,8.196721311475411 47.540983606557376,8.196721311475411  49.18032786885246,0 l  0,-36.885245901639344 c -1.639344262295082,-8.196721311475411 -47.540983606557376,-8.196721311475411 -49.18032786885246,0c  1.639344262295082,8.196721311475411 47.540983606557376,8.196721311475411  49.18032786885246,0 m  -49.18032786885246,5.737704918032787c  1.639344262295082,8.196721311475411 47.540983606557376,8.196721311475411 49.18032786885246,0m  -49.18032786885246,5.737704918032787c  1.639344262295082,8.196721311475411 47.540983606557376,8.196721311475411  49.18032786885246,0" style="fill: white; stroke-width: 2px; stroke: black; fill-opacity: 0.95;"/></g><rect x="0" y="0" width="50" height="50" class="djs-hit" style="fill: none; stroke-opacity: 0; stroke: white; stroke-width: 15px;"/><rect x="-6" y="-6" width="62" height="62" class="djs-outline" style="fill: none;"/></g></g><g class="djs-group"><g class="djs-element djs-shape" data-element-id="EndEvent_0sbpd6w" style="display: block;" transform="translate(1069 75)"><g class="djs-visual"><circle cx="18" cy="18" r="18" style="stroke: black; stroke-width: 4px; fill: white; fill-opacity: 0.95;"/></g><rect x="0" y="0" width="36" height="36" class="djs-hit" style="fill: none; stroke-opacity: 0; stroke: white; stroke-width: 15px;"/><rect x="-6" y="-6" width="48" height="48" class="djs-outline" style="fill: none;"/></g></g><g class="djs-group"><g class="djs-element djs-shape" data-element-id="Task_0g4vj6v" style="display: block;" transform="translate(825 224)"><g class="djs-visual"><rect x="0" y="0" width="100" height="80" rx="10" ry="10" style="stroke: black; stroke-width: 2px; fill: white; fill-opacity: 0.95;"/><text lineHeight="1.2" class="djs-label" style="font-family: Arial, sans-serif; font-size: 12px; font-weight: normal; fill: black;"><tspan x="16.1796875" y="29.200000000000003">store proxy's </tspan><tspan x="14.8203125" y="43.6">ballot as own </tspan><tspan x="14.3203125" y="58">vote (level=0)</tspan></text></g><rect x="0" y="0" width="100" height="80" class="djs-hit" style="fill: none; stroke-opacity: 0; stroke: white; stroke-width: 15px;"/><rect x="-6" y="-6" width="112" height="92" class="djs-outline" style="fill: none;"/></g></g><g class="djs-group"><g class="djs-element djs-shape" data-element-id="EndEvent_1jru1ec" style="display: block;" transform="translate(976 246)"><g class="djs-visual"><circle cx="18" cy="18" r="18" style="stroke: black; stroke-width: 4px; fill: white; fill-opacity: 0.95;"/></g><rect x="0" y="0" width="36" height="36" class="djs-hit" style="fill: none; stroke-opacity: 0; stroke: white; stroke-width: 15px;"/><rect x="-6" y="-6" width="48" height="48" class="djs-outline" style="fill: none;"/></g></g><g class="djs-group"><g class="djs-element djs-shape" data-element-id="StartEvent_129fp33_label" style="display: block;" transform="translate(256 51)"><g class="djs-visual"><text lineHeight="1.2" class="djs-label" style="font-family: Arial, sans-serif; font-size: 11px; font-weight: normal; fill: black;"><tspan x="0" y="9.899999999999999">Assign Proxy P</tspan></text></g><rect x="0" y="0" width="75" height="14" class="djs-hit" style="fill: none; stroke-opacity: 0; stroke: white; stroke-width: 15px;"/><rect x="-6" y="-6" width="87" height="26" class="djs-outline" style="fill: none;"/></g></g><g class="djs-group"><g class="djs-element djs-connection" data-element-id="Association_0m4j276" style="display: block;"><g class="djs-visual"><polyline points="494,367 537,353 " style="fill: none; stroke: black; stroke-width: 2px; stroke-dasharray: 0.5, 5; stroke-linecap: round; stroke-linejoin: round;"/></g><polyline points="494,367 537,353 " class="djs-hit" style="fill: none; stroke-opacity: 0; stroke: white; stroke-width: 15px;"/><rect x="488" y="347" width="55" height="26" class="djs-outline" style="fill: none;"/></g></g><g class="djs-group"><g class="djs-element djs-shape" data-element-id="DataStoreReference_1g09fyt_label" style="display: block;" transform="translate(404 516)"><g class="djs-visual"><text lineHeight="1.2" class="djs-label" style="font-family: Arial, sans-serif; font-size: 11px; font-weight: normal; fill: black;"><tspan x="0.6796875" y="9.899999999999999">valid checksums </tspan><tspan x="0" y="23.099999999999998">with delegatedTo </tspan><tspan x="2.25" y="36.3">and optionally a </tspan><tspan x="6.8203125" y="49.5">publicProxyID</tspan></text></g><rect x="0" y="0" width="82" height="53" class="djs-hit" style="fill: none; stroke-opacity: 0; stroke: white; stroke-width: 15px;"/><rect x="-6" y="-6" width="94" height="65" class="djs-outline" style="fill: none;"/></g></g><g class="djs-group"><g class="djs-element djs-shape" data-element-id="DataStoreReference_16f6yxd_label" style="display: block;" transform="translate(546 516)"><g class="djs-visual"><text lineHeight="1.2" class="djs-label" style="font-family: Arial, sans-serif; font-size: 11px; font-weight: normal; fill: black;"><tspan x="0" y="9.899999999999999">delegations from </tspan><tspan x="7.59375" y="23.099999999999998">voter to proxy</tspan></text></g><rect x="0" y="0" width="82" height="27" class="djs-hit" style="fill: none; stroke-opacity: 0; stroke: white; stroke-width: 15px;"/><rect x="-6" y="-6" width="94" height="39" class="djs-outline" style="fill: none;"/></g></g><g class="djs-group"><g class="djs-element djs-shape" data-element-id="EndEvent_0sbpd6w_label" style="display: block;" transform="translate(1046 118)"><g class="djs-visual"><text lineHeight="1.2" class="djs-label" style="font-family: Arial, sans-serif; font-size: 11px; font-weight: normal; fill: black;"><tspan x="2.953125" y="9.899999999999999">vote was casted </tspan><tspan x="0" y="23.099999999999998">by proxy and can </tspan><tspan x="6.171875" y="36.3">be checked by </tspan><tspan x="29.4921875" y="49.5">voter</tspan></text></g><rect x="0" y="0" width="84" height="53" class="djs-hit" style="fill: none; stroke-opacity: 0; stroke: white; stroke-width: 15px;"/><rect x="-6" y="-6" width="96" height="65" class="djs-outline" style="fill: none;"/></g></g><g class="djs-group"><g class="djs-element djs-shape" data-element-id="EndEvent_1jru1ec_label" style="display: block;" transform="translate(949 289)"><g class="djs-visual"><text lineHeight="1.2" class="djs-label" style="font-family: Arial, sans-serif; font-size: 11px; font-weight: normal; fill: black;"><tspan x="4.9453125" y="9.899999999999999">proxy can check </tspan><tspan x="11.9140625" y="23.099999999999998">his ballot with </tspan><tspan x="0" y="36.3">his own checksum</tspan></text></g><rect x="0" y="0" width="90" height="40" class="djs-hit" style="fill: none; stroke-opacity: 0; stroke: white; stroke-width: 15px;"/><rect x="-6" y="-6" width="102" height="52" class="djs-outline" style="fill: none;"/></g></g><g class="djs-group"><g class="djs-element djs-shape" data-element-id="SubProcess_04vhho7" style="display: block;" transform="translate(671 358)"><g class="djs-visual"><rect x="0" y="0" width="480" height="272" rx="10" ry="10" style="stroke: black; stroke-width: 2px; fill: white; fill-opacity: 0.95;"/><text lineHeight="1.2" class="djs-label" style="font-family: Arial, sans-serif; font-size: 12px; font-weight: normal; fill: black;"><tspan x="98.609375" y="15.799999999999999">Proxy: recursively cast vote for delegated checksums</tspan></text><path d="m 240,265 c 3.526979,0 6.386161,-2.829858 6.386161,-6.320661 0,-3.490806 -2.859182,-6.320661 -6.386161,-6.320661 -3.526978,0 -6.38616,2.829855 -6.38616,6.320661 0,1.745402 0.714797,3.325567 1.870463,4.469381 0.577834,0.571908 1.265885,1.034728 2.029916,1.35457 l -0.718163,-3.909793 m 0.718163,3.909793 -3.885211,0.802902" data-marker="loop" style="fill: white; stroke-width: 1px; stroke: black; stroke-linecap: round; stroke-miterlimit: 0.5;"/></g><rect x="0" y="0" width="480" height="272" class="djs-hit" style="fill: none; stroke-opacity: 0; stroke: white; stroke-width: 15px;"/><rect x="-6" y="-6" width="492" height="284" class="djs-outline" style="fill: none;"/></g><g class="djs-children"><g class="djs-group"><g class="djs-element djs-connection" data-element-id="SequenceFlow_1jcvm9t" style="display: block;"><g class="djs-visual"><path d="m  728,483L778,483 " style="fill: none; stroke-width: 2px; stroke: black; stroke-linejoin: round; marker-end: url('#sequenceflow-end-white-black-0dtpps1y7yktp93v6379k1kj7');"/></g><polyline points="728,483 778,483 " class="djs-hit" style="fill: none; stroke-opacity: 0; stroke: white; stroke-width: 15px;"/><rect x="722" y="477" width="62" height="12" class="djs-outline" style="fill: none;"/></g></g><g class="djs-group"><g class="djs-element djs-connection" data-element-id="SequenceFlow_0jpzsb8" style="display: block;"><g class="djs-visual"><path d="m  828,483L878,483 " style="fill: none; stroke-width: 2px; stroke: black; stroke-linejoin: round; marker-end: url('#sequenceflow-end-white-black-0dtpps1y7yktp93v6379k1kj7');"/></g><polyline points="828,483 878,483 " class="djs-hit" style="fill: none; stroke-opacity: 0; stroke: white; stroke-width: 15px;"/><rect x="822" y="477" width="62" height="12" class="djs-outline" style="fill: none;"/></g></g><g class="djs-group"><g class="djs-element djs-connection" data-element-id="SequenceFlow_00tpy4n" style="display: block;"><g class="djs-visual"><path d="m  803,508L803,549 " style="fill: none; stroke-width: 2px; stroke: black; stroke-linejoin: round; marker-end: url('#sequenceflow-end-white-black-0dtpps1y7yktp93v6379k1kj7');"/></g><polyline points="803,508 803,549 " class="djs-hit" style="fill: none; stroke-opacity: 0; stroke: white; stroke-width: 15px;"/><rect x="797" y="502" width="12" height="53" class="djs-outline" style="fill: none;"/></g></g><g class="djs-group"><g class="djs-element djs-connection" data-element-id="SequenceFlow_04a7v40" style="display: block;"><g class="djs-visual"><path d="m  978,483L1028,483 " style="fill: none; stroke-width: 2px; stroke: black; stroke-linejoin: round; marker-end: url('#sequenceflow-end-white-black-0dtpps1y7yktp93v6379k1kj7');"/></g><polyline points="978,483 1028,483 " class="djs-hit" style="fill: none; stroke-opacity: 0; stroke: white; stroke-width: 15px;"/><rect x="972" y="477" width="62" height="12" class="djs-outline" style="fill: none;"/></g></g><g class="djs-group"><g class="djs-element djs-shape" data-element-id="StartEvent_06b68ub" style="display: block;" transform="translate(692 465)"><g class="djs-visual"><circle cx="18" cy="18" r="18" style="stroke: black; stroke-width: 2px; fill: white; fill-opacity: 0.95;"/></g><rect x="0" y="0" width="36" height="36" class="djs-hit" style="fill: none; stroke-opacity: 0; stroke: white; stroke-width: 15px;"/><rect x="-6" y="-6" width="48" height="48" class="djs-outline" style="fill: none;"/></g></g><g class="djs-group"><g class="djs-element djs-shape" data-element-id="ExclusiveGateway_0206t8p" style="display: block;" transform="translate(778 458)"><g class="djs-visual"><polygon points="25,0 50,25 25,50 0,25" style="stroke: black; stroke-width: 2px; fill: white; fill-opacity: 0.95;"/><path d="m 16,15 7.42857142857143,9.714285714285715 -7.42857142857143,9.714285714285715 3.428571428571429,0 5.714285714285715,-7.464228571428572 5.714285714285715,7.464228571428572 3.428571428571429,0 -7.42857142857143,-9.714285714285715 7.42857142857143,-9.714285714285715 -3.428571428571429,0 -5.714285714285715,7.464228571428572 -5.714285714285715,-7.464228571428572 -3.428571428571429,0 z" style="fill: black; stroke-width: 1px; stroke: black;"/></g><rect x="0" y="0" width="50" height="50" class="djs-hit" style="fill: none; stroke-opacity: 0; stroke: white; stroke-width: 15px;"/><rect x="-6" y="-6" width="62" height="62" class="djs-outline" style="fill: none;"/></g></g><g class="djs-group"><g class="djs-element djs-shape" data-element-id="Task_1kq7ut1" style="display: block;" transform="translate(878 443)"><g class="djs-visual"><rect x="0" y="0" width="100" height="80" rx="10" ry="10" style="stroke: black; stroke-width: 2px; fill: white; fill-opacity: 0.95;"/><text lineHeight="1.2" class="djs-label" style="font-family: Arial, sans-serif; font-size: 12px; font-weight: normal; fill: black;"><tspan x="11.484375" y="22">store ballot for </tspan><tspan x="23.484375" y="36.4">delegated </tspan><tspan x="10.4921875" y="50.8">checksum with </tspan><tspan x="26.4921875" y="65.19999999999999">level = N</tspan></text></g><rect x="0" y="0" width="100" height="80" class="djs-hit" style="fill: none; stroke-opacity: 0; stroke: white; stroke-width: 15px;"/><rect x="-6" y="-6" width="112" height="92" class="djs-outline" style="fill: none;"/></g></g><g class="djs-group"><g class="djs-element djs-shape" data-element-id="EndEvent_17vkuqd" style="display: block;" transform="translate(785 549)"><g class="djs-visual"><circle cx="18" cy="18" r="18" style="stroke: black; stroke-width: 4px; fill: white; fill-opacity: 0.95;"/></g><rect x="0" y="0" width="36" height="36" class="djs-hit" style="fill: none; stroke-opacity: 0; stroke: white; stroke-width: 15px;"/><rect x="-6" y="-6" width="48" height="48" class="djs-outline" style="fill: none;"/></g></g><g class="djs-group"><g class="djs-element djs-shape" data-element-id="Task_1lkdu6q" style="display: block;" transform="translate(1028 443)"><g class="djs-visual"><rect x="0" y="0" width="100" height="80" rx="10" ry="10" style="stroke: black; stroke-width: 2px; fill: white; fill-opacity: 0.95;"/><text lineHeight="1.2" class="djs-label" style="font-family: Arial, sans-serif; font-size: 12px; font-weight: normal; fill: black;"><tspan x="21.328125" y="22">recursively </tspan><tspan x="6.140625" y="36.4">check delegated</tspan><tspan x="12.9921875" y="50.8">checksums at </tspan><tspan x="19.6484375" y="65.19999999999999">level = N+1</tspan></text></g><rect x="0" y="0" width="100" height="80" class="djs-hit" style="fill: none; stroke-opacity: 0; stroke: white; stroke-width: 15px;"/><rect x="-6" y="-6" width="112" height="92" class="djs-outline" style="fill: none;"/></g></g><g class="djs-group"><g class="djs-element djs-shape" data-element-id="StartEvent_06b68ub_label" style="display: block;" transform="translate(678 508)"><g class="djs-visual"><text lineHeight="1.2" class="djs-label" style="font-family: Arial, sans-serif; font-size: 11px; font-weight: normal; fill: black;"><tspan x="13.03125" y="9.899999999999999">for each </tspan><tspan x="8.2421875" y="23.099999999999998">delegated </tspan><tspan x="0" y="36.3">checksum at </tspan><tspan x="15.5625" y="49.5">level N</tspan></text></g><rect x="0" y="0" width="65" height="53" class="djs-hit" style="fill: none; stroke-opacity: 0; stroke: white; stroke-width: 15px;"/><rect x="-6" y="-6" width="77" height="65" class="djs-outline" style="fill: none;"/></g></g><g class="djs-group"><g class="djs-element djs-shape" data-element-id="ExclusiveGateway_0206t8p_label" style="display: block;" transform="translate(767 400)"><g class="djs-visual"><text lineHeight="1.2" class="djs-label" style="font-family: Arial, sans-serif; font-size: 11px; font-weight: normal; fill: black;"><tspan x="0" y="9.899999999999999">ballot with that </tspan><tspan x="0.1640625" y="23.099999999999998">checksum and </tspan><tspan x="4.7890625" y="36.3">smaller level </tspan><tspan x="18.5078125" y="49.5">exists?</tspan></text></g><rect x="0" y="0" width="72" height="53" class="djs-hit" style="fill: none; stroke-opacity: 0; stroke: white; stroke-width: 15px;"/><rect x="-6" y="-6" width="84" height="65" class="djs-outline" style="fill: none;"/></g></g><g class="djs-group"><g class="djs-element djs-shape" data-element-id="EndEvent_17vkuqd_label" style="display: block;" transform="translate(827 547)"><g class="djs-visual"><text lineHeight="1.2" class="djs-label" style="font-family: Arial, sans-serif; font-size: 11px; font-weight: normal; fill: black;"><tspan x="6.78125" y="9.899999999999999">never overwrite </tspan><tspan x="0" y="23.099999999999998">ballot with smaller</tspan><tspan x="32.7890625" y="36.3">level</tspan></text></g><rect x="0" y="0" width="89" height="40" class="djs-hit" style="fill: none; stroke-opacity: 0; stroke: white; stroke-width: 15px;"/><rect x="-6" y="-6" width="101" height="52" class="djs-outline" style="fill: none;"/></g></g></g></g></g></g><g class="djs-drag-group" style="pointer-events: none;" transform="translate(75 0)"/><g class="djs-drag-group" style="pointer-events: none;" transform="translate(-80 -110)"/><g class="djs-drag-group" style="pointer-events: none;" transform="translate(118 0)"/><g class="djs-drag-group" style="pointer-events: none;" transform="translate(62 -94)"/><g class="djs-drag-group" style="pointer-events: none;" transform="translate(0 -38)"/><g class="djs-drag-group" style="pointer-events: none;" transform="translate(180 -39)"/><g class="djs-drag-group" style="pointer-events: none;" transform="translate(699 34)"/><g class="djs-drag-group" style="pointer-events: none;" transform="translate(-32 -150)"/><g class="djs-drag-group" style="pointer-events: none;" transform="translate(-285 -223)"/><g class="djs-drag-group" style="pointer-events: none;" transform="translate(263 -223)"/><g class="djs-drag-group" style="pointer-events: none;" transform="translate(2 61)"/><g class="djs-drag-group" style="pointer-events: none;" transform="translate(150 0)"/><g class="djs-drag-group" style="pointer-events: none;" transform="translate(-7 171)"/><g class="djs-drag-group" style="pointer-events: none;" transform="translate(30 0)"/><g class="djs-drag-group" style="pointer-events: none;" transform="translate(38 0)"/><g class="djs-drag-group" style="pointer-events: none;" transform="translate(2 0)"/><g class="djs-drag-group" style="pointer-events: none;" transform="translate(-29 0)"/><g class="djs-drag-group" style="pointer-events: none;" transform="translate(0 -120)"/><g class="djs-drag-group" style="pointer-events: none;" transform="translate(0 -23)"/><g class="djs-drag-group" style="pointer-events: none;" transform="translate(0 -46)"/><g class="djs-drag-group" style="pointer-events: none;" transform="translate(258 0)"/><g class="djs-drag-group" style="pointer-events: none;" transform="translate(276 0)"/><g class="djs-drag-group" style="pointer-events: none;" transform="translate(144 0)"/><g class="djs-drag-group" style="pointer-events: none;" transform="translate(0 -80)"/><g class="djs-drag-group" style="pointer-events: none;" transform="translate(25 0)"/><g class="djs-drag-group" style="pointer-events: none;" transform="translate(-227 61)"/><g class="djs-drag-group" style="pointer-events: none;" transform="translate(0 -118)"/><g class="djs-drag-group" style="pointer-events: none;" transform="translate(-93 -49)"/><g class="djs-drag-group" style="pointer-events: none;" transform="translate(0 23)"/><g class="djs-drag-group" style="pointer-events: none;" transform="translate(78 -45)"/><g class="djs-drag-group" style="pointer-events: none;" transform="translate(-127 0)"/><g class="djs-drag-group" style="pointer-events: none;" transform="translate(-127 7)"/><g class="djs-drag-group" style="pointer-events: none;" transform="translate(107 0)"/><g class="djs-drag-group" style="pointer-events: none;" transform="translate(147 185)"/><g class="djs-drag-group" style="pointer-events: none;" transform="translate(138 35)"/><g class="djs-drag-group" style="pointer-events: none;" transform="translate(0 220)"/><g class="djs-drag-group" style="pointer-events: none;" transform="translate(0 -32)"/><g class="djs-drag-group" style="pointer-events: none;" transform="translate(30 0)"/><g class="djs-drag-group" style="pointer-events: none;" transform="translate(17 9)"/><g class="djs-drag-group" style="pointer-events: none;" transform="translate(0 3)"/><g class="djs-drag-group" style="pointer-events: none;" transform="translate(3 9)"/><g class="djs-drag-group" style="pointer-events: none;" transform="translate(1 17)"/><g class="djs-drag-group" style="pointer-events: none;" transform="translate(-268 148)"/><g class="djs-drag-group" style="pointer-events: none;" transform="translate(268 -155)"/><g class="djs-drag-group" style="pointer-events: none;" transform="translate(-41 0)"/><g class="djs-drag-group" style="pointer-events: none;" transform="translate(38 0)"/><g class="djs-drag-group" style="pointer-events: none;" transform="translate(-10 0)"/><g class="djs-drag-group" style="pointer-events: none;" transform="translate(4 0)"/><g class="djs-drag-group" style="pointer-events: none;" transform="translate(0 16)"/></svg>