<?xml version="1.0" encoding="utf-8"?>
<!-- created with bpmn-js / http://bpmn.io -->
<!DOCTYPE svg PUBLIC "-//W3C//DTD SVG 1.1//EN" "http://www.w3.org/Graphics/SVG/1.1/DTD/svg11.dtd">
<svg xmlns="http://www.w3.org/2000/svg" xmlns:xlink="http://www.w3.org/1999/xlink" width="1044" height="482" viewBox="15 16 1044 482" version="1.1"><defs><marker id="sequenceflow-end-white-black-9cdzfwn5mvgz4l7xys80lt09a" viewBox="0 0 20 20" refX="11" refY="10" markerWidth="10" markerHeight="10" orient="auto"><path d="M 1 5 L 11 10 L 1 15 Z" style="fill: black; stroke-width: 1px; stroke-linecap: round; stroke-dasharray: 10000, 1; stroke: black;"/></marker></defs><g class="djs-group"><g class="djs-element djs-shape" data-element-id="Participant_1qrz8wy" style="display: block;" transform="translate(21 22)"><g class="djs-visual"><rect x="0" y="0" width="1032" height="470" rx="0" ry="0" style="stroke: black; stroke-width: 2px; fill: white; fill-opacity: 0.95;"/><polyline points="30,0 30,470 " style="fill: none; stroke: black; stroke-width: 2px;"/><text lineHeight="1.2" class="djs-label" style="font-family: Arial, sans-serif; font-size: 12px; font-weight: normal; fill: black;" transform="matrix(-1.83697e-16 -1 1 -1.83697e-16 0 470)"><tspan x="178.140625" y="18.6">Liquido - Simple Vote</tspan></text></g><rect x="0" y="0" width="1032" height="470" class="djs-hit" style="fill: none; stroke-opacity: 0; stroke: white; stroke-width: 15px;"/><rect x="-6" y="-6" width="1044" height="482" class="djs-outline" style="fill: none;"/></g><g class="djs-children"><g class="djs-group"><g class="djs-element djs-shape" data-element-id="Lane_1sjoi81" style="display: block;" transform="translate(51 22)"><g class="djs-visual"><rect x="0" y="0" width="1002" height="157" rx="0" ry="0" style="stroke: black; stroke-width: 2px; fill: white; fill-opacity: 0.35;"/><text lineHeight="1.2" class="djs-label" style="font-family: Arial, sans-serif; font-size: 12px; font-weight: normal; fill: black;" transform="matrix(-1.83697e-16 -1 1 -1.83697e-16 0 157)"><tspan x="63.9921875" y="18.6">Voter</tspan></text></g><rect x="0" y="0" width="1002" height="157" class="djs-hit" style="fill: none; stroke-opacity: 0; stroke: white; stroke-width: 15px;"/><rect x="-6" y="-6" width="1014" height="169" class="djs-outline" style="fill: none;"/></g></g><g class="djs-group"><g class="djs-element djs-shape hover" data-element-id="Lane_094w2ox" style="display: block;" transform="translate(51 179)"><g class="djs-visual"><rect x="0" y="0" width="1002" height="313" rx="0" ry="0" style="stroke: black; stroke-width: 2px; fill: white; fill-opacity: 0.35;"/><text lineHeight="1.2" class="djs-label" style="font-family: Arial, sans-serif; font-size: 12px; font-weight: normal; fill: black;" transform="matrix(-1.83697e-16 -1 1 -1.83697e-16 0 313)"><tspan x="138.328125" y="18.6">Server</tspan></text></g><rect x="0" y="0" width="1002" height="313" class="djs-hit" style="fill: none; stroke-opacity: 0; stroke: white; stroke-width: 15px;"/><rect x="-6" y="-6" width="1014" height="325" class="djs-outline" style="fill: none;"/></g></g><g class="djs-group"><g class="djs-element djs-shape" data-element-id="TextAnnotation_1gegwka" style="display: block;" transform="translate(134 368)"><g class="djs-visual"><rect x="0" y="0" width="197" height="30" rx="0" ry="0" style="stroke: none; stroke-width: 2px; fill: none;"/><path d="m 0, 0 m 10,0 l -10,0 l 0,30 l 10,0" style="fill: none; stroke-width: 2px; stroke: black;"/><text lineHeight="1.2" class="djs-label" style="font-family: Arial, sans-serif; font-size: 12px; font-weight: normal; fill: black;"><tspan x="5" y="15.799999999999999">voterToken = hash(user, area)</tspan></text></g><rect x="0" y="0" width="197" height="30" class="djs-hit" style="fill: none; stroke-opacity: 0; stroke: white; stroke-width: 15px;"/><rect x="-6" y="-6" width="209" height="42" class="djs-outline" style="fill: none;"/></g></g><g class="djs-group"><g class="djs-element djs-shape" data-element-id="TextAnnotation_13358wq" style="display: block;" transform="translate(173 429)"><g class="djs-visual"><rect x="0" y="0" width="176" height="30" rx="0" ry="0" style="stroke: none; stroke-width: 2px; fill: none;"/><path d="m 0, 0 m 10,0 l -10,0 l 0,30 l 10,0" style="fill: none; stroke-width: 2px; stroke: black;"/><text lineHeight="1.2" class="djs-label" style="font-family: Arial, sans-serif; font-size: 12px; font-weight: normal; fill: black;"><tspan x="5" y="15.799999999999999">checksum = hash(voterToken)</tspan></text></g><rect x="0" y="0" width="176" height="30" class="djs-hit" style="fill: none; stroke-opacity: 0; stroke: white; stroke-width: 15px;"/><rect x="-6" y="-6" width="188" height="42" class="djs-outline" style="fill: none;"/></g></g><g class="djs-group"><g class="djs-element djs-connection" data-element-id="SequenceFlow_11gxohz" style="display: block;"><g class="djs-visual"><path d="m  135,85L160,85 " style="fill: none; stroke-width: 2px; stroke: black; stroke-linejoin: round; marker-end: url('#sequenceflow-end-white-black-9cdzfwn5mvgz4l7xys80lt09a');"/></g><polyline points="135,85 160,85 " class="djs-hit" style="fill: none; stroke-opacity: 0; stroke: white; stroke-width: 15px;"/><rect x="129" y="79" width="37" height="12" class="djs-outline" style="fill: none;"/></g></g><g class="djs-group"><g class="djs-element djs-connection" data-element-id="SequenceFlow_10gfto4" style="display: block;"><g class="djs-visual"><path d="m  210,125L210,249 " style="fill: none; stroke-width: 2px; stroke: black; stroke-linejoin: round; marker-end: url('#sequenceflow-end-white-black-9cdzfwn5mvgz4l7xys80lt09a');"/></g><polyline points="210,125 210,249 " class="djs-hit" style="fill: none; stroke-opacity: 0; stroke: white; stroke-width: 15px;"/><rect x="204" y="119" width="12" height="136" class="djs-outline" style="fill: none;"/></g></g><g class="djs-group"><g class="djs-element djs-connection" data-element-id="SequenceFlow_1skovu2" style="display: block;"><g class="djs-visual"><path d="m  438,249L438,125 " style="fill: none; stroke-width: 2px; stroke: black; stroke-linejoin: round; marker-end: url('#sequenceflow-end-white-black-9cdzfwn5mvgz4l7xys80lt09a');"/></g><polyline points="438,249 438,125 " class="djs-hit" style="fill: none; stroke-opacity: 0; stroke: white; stroke-width: 15px;"/><rect x="432" y="119" width="12" height="136" class="djs-outline" style="fill: none;"/></g></g><g class="djs-group"><g class="djs-element djs-connection" data-element-id="SequenceFlow_19ed8wb" style="display: block;"><g class="djs-visual"><path d="m  488,85L587,85 " style="fill: none; stroke-width: 2px; stroke: black; stroke-linejoin: round; marker-end: url('#sequenceflow-end-white-black-9cdzfwn5mvgz4l7xys80lt09a');"/></g><polyline points="488,85 587,85 " class="djs-hit" style="fill: none; stroke-opacity: 0; stroke: white; stroke-width: 15px;"/><rect x="482" y="79" width="111" height="12" class="djs-outline" style="fill: none;"/></g></g><g class="djs-group"><g class="djs-element djs-connection" data-element-id="SequenceFlow_0shpjrc" style="display: block;"><g class="djs-visual"><path d="m  605,372L605,103 " style="fill: none; stroke-width: 2px; stroke: black; stroke-linejoin: round; marker-end: url('#sequenceflow-end-white-black-9cdzfwn5mvgz4l7xys80lt09a');"/></g><polyline points="605,372 605,103 " class="djs-hit" style="fill: none; stroke-opacity: 0; stroke: white; stroke-width: 15px;"/><rect x="599" y="97" width="12" height="281" class="djs-outline" style="fill: none;"/></g></g><g class="djs-group"><g class="djs-element djs-connection" data-element-id="SequenceFlow_07dwsgh" style="display: block;"><g class="djs-visual"><path d="m  623,85L686,85 " style="fill: none; stroke-width: 2px; stroke: black; stroke-linejoin: round; marker-end: url('#sequenceflow-end-white-black-9cdzfwn5mvgz4l7xys80lt09a');"/></g><polyline points="623,85 686,85 " class="djs-hit" style="fill: none; stroke-opacity: 0; stroke: white; stroke-width: 15px;"/><rect x="617" y="79" width="75" height="12" class="djs-outline" style="fill: none;"/></g></g><g class="djs-group"><g class="djs-element djs-connection" data-element-id="SequenceFlow_011h60g" style="display: block;"><g class="djs-visual"><path d="m  736,125L736,249 " style="fill: none; stroke-width: 2px; stroke: black; stroke-linejoin: round; marker-end: url('#sequenceflow-end-white-black-9cdzfwn5mvgz4l7xys80lt09a');"/></g><polyline points="736,125 736,249 " class="djs-hit" style="fill: none; stroke-opacity: 0; stroke: white; stroke-width: 15px;"/><rect x="730" y="119" width="12" height="136" class="djs-outline" style="fill: none;"/></g></g><g class="djs-group"><g class="djs-element djs-connection" data-element-id="SequenceFlow_0com3wn" style="display: block;"><g class="djs-visual"><path d="m  895,249L895,125 " style="fill: none; stroke-width: 2px; stroke: black; stroke-linejoin: round; marker-end: url('#sequenceflow-end-white-black-9cdzfwn5mvgz4l7xys80lt09a');"/></g><polyline points="895,249 895,125 " class="djs-hit" style="fill: none; stroke-opacity: 0; stroke: white; stroke-width: 15px;"/><rect x="889" y="119" width="12" height="136" class="djs-outline" style="fill: none;"/></g></g><g class="djs-group"><g class="djs-element djs-connection" data-element-id="SequenceFlow_1kgui8l" style="display: block;"><g class="djs-visual"><path d="m  945,85L978,85 " style="fill: none; stroke-width: 2px; stroke: black; stroke-linejoin: round; marker-end: url('#sequenceflow-end-white-black-9cdzfwn5mvgz4l7xys80lt09a');"/></g><polyline points="945,85 978,85 " class="djs-hit" style="fill: none; stroke-opacity: 0; stroke: white; stroke-width: 15px;"/><rect x="939" y="79" width="45" height="12" class="djs-outline" style="fill: none;"/></g></g><g class="djs-group"><g class="djs-element djs-connection" data-element-id="SequenceFlow_1hkfx5f" style="display: block;"><g class="djs-visual"><path d="m  260,289L302,289 " style="fill: none; stroke-width: 2px; stroke: black; stroke-linejoin: round; marker-end: url('#sequenceflow-end-white-black-9cdzfwn5mvgz4l7xys80lt09a');"/></g><polyline points="260,289 302,289 " class="djs-hit" style="fill: none; stroke-opacity: 0; stroke: white; stroke-width: 15px;"/><rect x="254" y="283" width="54" height="12" class="djs-outline" style="fill: none;"/></g></g><g class="djs-group"><g class="djs-element djs-connection" data-element-id="SequenceFlow_017dn8v" style="display: block;"><g class="djs-visual"><path d="m  352,289L388,289 " style="fill: none; stroke-width: 2px; stroke: black; stroke-linejoin: round; marker-end: url('#sequenceflow-end-white-black-9cdzfwn5mvgz4l7xys80lt09a');"/></g><polyline points="352,289 388,289 " class="djs-hit" style="fill: none; stroke-opacity: 0; stroke: white; stroke-width: 15px;"/><rect x="346" y="283" width="48" height="12" class="djs-outline" style="fill: none;"/></g></g><g class="djs-group"><g class="djs-element djs-connection" data-element-id="SequenceFlow_1kir0tl" style="display: block;"><g class="djs-visual"><path d="m  327,314L327,412 L388,412 " style="fill: none; stroke-width: 2px; stroke: black; stroke-linejoin: round; marker-end: url('#sequenceflow-end-white-black-9cdzfwn5mvgz4l7xys80lt09a');"/></g><polyline points="327,314 327,412 388,412 " class="djs-hit" style="fill: none; stroke-opacity: 0; stroke: white; stroke-width: 15px;"/><rect x="321" y="308" width="73" height="110" class="djs-outline" style="fill: none;"/></g></g><g class="djs-group"><g class="djs-element djs-connection" data-element-id="SequenceFlow_1i050zh" style="display: block;"><g class="djs-visual"><path d="m  488,412L555,412 " style="fill: none; stroke-width: 2px; stroke: black; stroke-linejoin: round; marker-end: url('#sequenceflow-end-white-black-9cdzfwn5mvgz4l7xys80lt09a');"/></g><polyline points="488,412 555,412 " class="djs-hit" style="fill: none; stroke-opacity: 0; stroke: white; stroke-width: 15px;"/><rect x="482" y="406" width="79" height="12" class="djs-outline" style="fill: none;"/></g></g><g class="djs-group"><g class="djs-element djs-connection" data-element-id="SequenceFlow_020mwdc" style="display: block;"><g class="djs-visual"><path d="m  786,289L845,289 " style="fill: none; stroke-width: 2px; stroke: black; stroke-linejoin: round; marker-end: url('#sequenceflow-end-white-black-9cdzfwn5mvgz4l7xys80lt09a');"/></g><polyline points="786,289 845,289 " class="djs-hit" style="fill: none; stroke-opacity: 0; stroke: white; stroke-width: 15px;"/><rect x="780" y="283" width="71" height="12" class="djs-outline" style="fill: none;"/></g></g><g class="djs-group"><g class="djs-element djs-connection" data-element-id="SequenceFlow_110x1et" style="display: block;"><g class="djs-visual"><path d="m  736,329L736,372 " style="fill: none; stroke-width: 2px; stroke: black; stroke-linejoin: round; marker-end: url('#sequenceflow-end-white-black-9cdzfwn5mvgz4l7xys80lt09a');"/></g><polyline points="736,329 736,372 " class="djs-hit" style="fill: none; stroke-opacity: 0; stroke: white; stroke-width: 15px;"/><rect x="730" y="323" width="12" height="55" class="djs-outline" style="fill: none;"/></g></g><g class="djs-group"><g class="djs-element djs-shape" data-element-id="Task_133rebd" style="display: block;" transform="translate(160 45)"><g class="djs-visual"><rect x="0" y="0" width="100" height="80" rx="10" ry="10" style="stroke: black; stroke-width: 2px; fill: white; fill-opacity: 0.95;"/><text lineHeight="1.2" class="djs-label" style="font-family: Arial, sans-serif; font-size: 12px; font-weight: normal; fill: black;"><tspan x="17.15625" y="29.200000000000003">request own </tspan><tspan x="11.984375" y="43.6">voterToken for </tspan><tspan x="37.828125" y="58">area</tspan></text></g><rect x="0" y="0" width="100" height="80" class="djs-hit" style="fill: none; stroke-opacity: 0; stroke: white; stroke-width: 15px;"/><rect x="-6" y="-6" width="112" height="92" class="djs-outline" style="fill: none;"/></g></g><g class="djs-group"><g class="djs-element djs-shape" data-element-id="StartEvent_1p32udv" style="display: block;" transform="translate(99 67)"><g class="djs-visual"><circle cx="18" cy="18" r="18" style="stroke: black; stroke-width: 2px; fill: white; fill-opacity: 0.95;"/></g><rect x="0" y="0" width="36" height="36" class="djs-hit" style="fill: none; stroke-opacity: 0; stroke: white; stroke-width: 15px;"/><rect x="-6" y="-6" width="48" height="48" class="djs-outline" style="fill: none;"/></g></g><g class="djs-group"><g class="djs-element djs-shape" data-element-id="Task_0q38lyg" style="display: block;" transform="translate(388 45)"><g class="djs-visual"><rect x="0" y="0" width="100" height="80" rx="10" ry="10" style="stroke: black; stroke-width: 2px; fill: white; fill-opacity: 0.95;"/><text lineHeight="1.2" class="djs-label" style="font-family: Arial, sans-serif; font-size: 12px; font-weight: normal; fill: black;"><tspan x="24.3359375" y="22">User may </tspan><tspan x="9.140625" y="36.4">accept pending </tspan><tspan x="22.1484375" y="50.8">delegation </tspan><tspan x="6.984375" y="65.19999999999999">requests (if any)</tspan></text></g><rect x="0" y="0" width="100" height="80" class="djs-hit" style="fill: none; stroke-opacity: 0; stroke: white; stroke-width: 15px;"/><rect x="-6" y="-6" width="112" height="92" class="djs-outline" style="fill: none;"/></g></g><g class="djs-group"><g class="djs-element djs-shape" data-element-id="StartEvent_1p32udv_label" style="display: block;" transform="translate(95 110)"><g class="djs-visual"><text lineHeight="1.2" class="djs-label" style="font-family: Arial, sans-serif; font-size: 11px; font-weight: normal; fill: black;"><tspan x="0" y="9.899999999999999">Cast vote</tspan></text></g><rect x="0" y="0" width="47" height="14" class="djs-hit" style="fill: none; stroke-opacity: 0; stroke: white; stroke-width: 15px;"/><rect x="-6" y="-6" width="59" height="26" class="djs-outline" style="fill: none;"/></g></g><g class="djs-group"><g class="djs-element djs-shape" data-element-id="IntermediateThrowEvent_0tf7xzp" style="display: block;" transform="translate(587 67)"><g class="djs-visual"><circle cx="18" cy="18" r="18" style="stroke: black; stroke-width: 1px; fill: white; fill-opacity: 0.95;"/><circle cx="18" cy="18" r="15" style="stroke: black; stroke-width: 1px; fill: none;"/></g><rect x="0" y="0" width="36" height="36" class="djs-hit" style="fill: none; stroke-opacity: 0; stroke: white; stroke-width: 15px;"/><rect x="-6" y="-6" width="48" height="48" class="djs-outline" style="fill: none;"/></g></g><g class="djs-group"><g class="djs-element djs-shape" data-element-id="Task_0qosxh7" style="display: block;" transform="translate(686 45)"><g class="djs-visual"><rect x="0" y="0" width="100" height="80" rx="10" ry="10" style="stroke: black; stroke-width: 2px; fill: white; fill-opacity: 0.95;"/><text lineHeight="1.2" class="djs-label" style="font-family: Arial, sans-serif; font-size: 12px; font-weight: normal; fill: black;"><tspan x="14.6484375" y="29.200000000000003">anonymously </tspan><tspan x="13.15625" y="43.6">cast own vote </tspan><tspan x="8.65625" y="58">with voterToken</tspan></text></g><rect x="0" y="0" width="100" height="80" class="djs-hit" style="fill: none; stroke-opacity: 0; stroke: white; stroke-width: 15px;"/><rect x="-6" y="-6" width="112" height="92" class="djs-outline" style="fill: none;"/></g></g><g class="djs-group"><g class="djs-element djs-shape" data-element-id="Task_0lz8hm0" style="display: block;" transform="translate(845 45)"><g class="djs-visual"><rect x="0" y="0" width="100" height="80" rx="10" ry="10" style="stroke: black; stroke-width: 2px; fill: white; fill-opacity: 0.95;"/><text lineHeight="1.2" class="djs-label" style="font-family: Arial, sans-serif; font-size: 12px; font-weight: normal; fill: black;"><tspan x="10.484375" y="29.200000000000003">check result of </tspan><tspan x="15.4921875" y="43.6">poll with own </tspan><tspan x="22.9921875" y="58">checksum</tspan></text></g><rect x="0" y="0" width="100" height="80" class="djs-hit" style="fill: none; stroke-opacity: 0; stroke: white; stroke-width: 15px;"/><rect x="-6" y="-6" width="112" height="92" class="djs-outline" style="fill: none;"/></g></g><g class="djs-group"><g class="djs-element djs-shape" data-element-id="EndEvent_04e6n7q" style="display: block;" transform="translate(978 67)"><g class="djs-visual"><circle cx="18" cy="18" r="18" style="stroke: black; stroke-width: 4px; fill: white; fill-opacity: 0.95;"/></g><rect x="0" y="0" width="36" height="36" class="djs-hit" style="fill: none; stroke-opacity: 0; stroke: white; stroke-width: 15px;"/><rect x="-6" y="-6" width="48" height="48" class="djs-outline" style="fill: none;"/></g></g><g class="djs-group"><g class="djs-element djs-shape" data-element-id="IntermediateThrowEvent_0tf7xzp_label" style="display: block;" transform="translate(571 37)"><g class="djs-visual"><text lineHeight="1.2" class="djs-label" style="font-family: Arial, sans-serif; font-size: 11px; font-weight: normal; fill: black;"><tspan x="0" y="9.899999999999999">user has valid </tspan><tspan x="7.53125" y="23.099999999999998">voterToken</tspan></text></g><rect x="0" y="0" width="68" height="27" class="djs-hit" style="fill: none; stroke-opacity: 0; stroke: white; stroke-width: 15px;"/><rect x="-6" y="-6" width="80" height="39" class="djs-outline" style="fill: none;"/></g></g><g class="djs-group"><g class="djs-element djs-shape" data-element-id="EndEvent_04e6n7q_label" style="display: block;" transform="translate(956 110)"><g class="djs-visual"><text lineHeight="1.2" class="djs-label" style="font-family: Arial, sans-serif; font-size: 11px; font-weight: normal; fill: black;"><tspan x="0" y="9.899999999999999">own vote casted</tspan></text></g><rect x="0" y="0" width="80" height="14" class="djs-hit" style="fill: none; stroke-opacity: 0; stroke: white; stroke-width: 15px;"/><rect x="-6" y="-6" width="92" height="26" class="djs-outline" style="fill: none;"/></g></g><g class="djs-group"><g class="djs-element djs-shape" data-element-id="Task_0vg0lhh" style="display: block;" transform="translate(160 249)"><g class="djs-visual"><rect x="0" y="0" width="100" height="80" rx="10" ry="10" style="stroke: black; stroke-width: 2px; fill: white; fill-opacity: 0.95;"/><text lineHeight="1.2" class="djs-label" style="font-family: Arial, sans-serif; font-size: 12px; font-weight: normal; fill: black;"><tspan x="20.484375" y="36.4">create new </tspan><tspan x="20.9921875" y="50.8">voterToken</tspan></text></g><rect x="0" y="0" width="100" height="80" class="djs-hit" style="fill: none; stroke-opacity: 0; stroke: white; stroke-width: 15px;"/><rect x="-6" y="-6" width="112" height="92" class="djs-outline" style="fill: none;"/></g></g><g class="djs-group"><g class="djs-element djs-shape" data-element-id="Task_0rmevng" style="display: block;" transform="translate(388 249)"><g class="djs-visual"><rect x="0" y="0" width="100" height="80" rx="10" ry="10" style="stroke: black; stroke-width: 2px; fill: white; fill-opacity: 0.95;"/><text lineHeight="1.2" class="djs-label" style="font-family: Arial, sans-serif; font-size: 12px; font-weight: normal; fill: black;"><tspan x="14.484375" y="22">calculate and </tspan><tspan x="7.984375" y="36.4">store checksum </tspan><tspan x="13.8203125" y="50.8">of voterToken </tspan><tspan x="10.65625" y="65.19999999999999">(anonymously)</tspan></text></g><rect x="0" y="0" width="100" height="80" class="djs-hit" style="fill: none; stroke-opacity: 0; stroke: white; stroke-width: 15px;"/><rect x="-6" y="-6" width="112" height="92" class="djs-outline" style="fill: none;"/></g></g><g class="djs-group"><g class="djs-element djs-shape" data-element-id="ExclusiveGateway_081zzt0" style="display: block;" transform="translate(302 264)"><g class="djs-visual"><polygon points="25,0 50,25 25,50 0,25" style="stroke: black; stroke-width: 2px; fill: white; fill-opacity: 0.95;"/><path d="m 16,15 7.42857142857143,9.714285714285715 -7.42857142857143,9.714285714285715 3.428571428571429,0 5.714285714285715,-7.464228571428572 5.714285714285715,7.464228571428572 3.428571428571429,0 -7.42857142857143,-9.714285714285715 7.42857142857143,-9.714285714285715 -3.428571428571429,0 -5.714285714285715,7.464228571428572 -5.714285714285715,-7.464228571428572 -3.428571428571429,0 z" style="fill: black; stroke-width: 1px; stroke: black;"/></g><rect x="0" y="0" width="50" height="50" class="djs-hit" style="fill: none; stroke-opacity: 0; stroke: white; stroke-width: 15px;"/><rect x="-6" y="-6" width="62" height="62" class="djs-outline" style="fill: none;"/></g></g><g class="djs-group"><g class="djs-element djs-shape" data-element-id="Task_1hws6br" style="display: block;" transform="translate(388 372)"><g class="djs-visual"><rect x="0" y="0" width="100" height="80" rx="10" ry="10" style="stroke: black; stroke-width: 2px; fill: white; fill-opacity: 0.95;"/><text lineHeight="1.2" class="djs-label" style="font-family: Arial, sans-serif; font-size: 12px; font-weight: normal; fill: black;"><tspan x="12.484375" y="22">calc and store </tspan><tspan x="15.4921875" y="36.4">checksum of </tspan><tspan x="20.9921875" y="50.8">voterToken </tspan><tspan x="12.78125" y="65.19999999999999">WITH proxy.id</tspan></text></g><rect x="0" y="0" width="100" height="80" class="djs-hit" style="fill: none; stroke-opacity: 0; stroke: white; stroke-width: 15px;"/><rect x="-6" y="-6" width="112" height="92" class="djs-outline" style="fill: none;"/></g></g><g class="djs-group"><g class="djs-element djs-shape" data-element-id="Task_0xzcnao" style="display: block;" transform="translate(555 372)"><g class="djs-visual"><rect x="0" y="0" width="100" height="80" rx="10" ry="10" style="stroke: black; stroke-width: 2px; fill: white; fill-opacity: 0.95;"/><text lineHeight="1.2" class="djs-label" style="font-family: Arial, sans-serif; font-size: 12px; font-weight: normal; fill: black;"><tspan x="14.984375" y="14.799999999999999">automatically </tspan><tspan x="24.4921875" y="29.199999999999996">accept all </tspan><tspan x="28.484375" y="43.599999999999994">pending </tspan><tspan x="22.1484375" y="57.99999999999999">delegation </tspan><tspan x="26.9921875" y="72.39999999999999">requests</tspan></text></g><rect x="0" y="0" width="100" height="80" class="djs-hit" style="fill: none; stroke-opacity: 0; stroke: white; stroke-width: 15px;"/><rect x="-6" y="-6" width="112" height="92" class="djs-outline" style="fill: none;"/></g></g><g class="djs-group"><g class="djs-element djs-shape" data-element-id="Task_0as8ggd" style="display: block;" transform="translate(686 249)"><g class="djs-visual"><rect x="0" y="0" width="100" height="80" rx="10" ry="10" style="stroke: black; stroke-width: 2px; fill: white; fill-opacity: 0.95;"/><text lineHeight="1.2" class="djs-label" style="font-family: Arial, sans-serif; font-size: 12px; font-weight: normal; fill: black;"><tspan x="29.65625" y="22">validate </tspan><tspan x="20.9921875" y="36.4">voterToken </tspan><tspan x="16.484375" y="50.8">against valid </tspan><tspan x="19.9921875" y="65.19999999999999">checksums</tspan></text></g><rect x="0" y="0" width="100" height="80" class="djs-hit" style="fill: none; stroke-opacity: 0; stroke: white; stroke-width: 15px;"/><rect x="-6" y="-6" width="112" height="92" class="djs-outline" style="fill: none;"/></g></g><g class="djs-group"><g class="djs-element djs-shape" data-element-id="Task_0lgy27c" style="display: block;" transform="translate(845 249)"><g class="djs-visual"><rect x="0" y="0" width="100" height="80" rx="10" ry="10" style="stroke: black; stroke-width: 2px; fill: white; fill-opacity: 0.95;"/><text lineHeight="1.2" class="djs-label" style="font-family: Arial, sans-serif; font-size: 12px; font-weight: normal; fill: black;"><tspan x="18.984375" y="29.200000000000003">store ballot </tspan><tspan x="18.8203125" y="43.6">as ownVote </tspan><tspan x="23.4921875" y="58">(level = 0)</tspan></text></g><rect x="0" y="0" width="100" height="80" class="djs-hit" style="fill: none; stroke-opacity: 0; stroke: white; stroke-width: 15px;"/><rect x="-6" y="-6" width="112" height="92" class="djs-outline" style="fill: none;"/></g></g><g class="djs-group"><g class="djs-element djs-shape" data-element-id="DataStoreReference_1g09fyt" style="display: block;" transform="translate(834 387)"><g class="djs-visual"><path d="m  0,6.65 l  0,36.885245901639344 c  1.639344262295082,8.196721311475411 47.540983606557376,8.196721311475411  49.18032786885246,0 l  0,-36.885245901639344 c -1.639344262295082,-8.196721311475411 -47.540983606557376,-8.196721311475411 -49.18032786885246,0c  1.639344262295082,8.196721311475411 47.540983606557376,8.196721311475411  49.18032786885246,0 m  -49.18032786885246,5.737704918032787c  1.639344262295082,8.196721311475411 47.540983606557376,8.196721311475411 49.18032786885246,0m  -49.18032786885246,5.737704918032787c  1.639344262295082,8.196721311475411 47.540983606557376,8.196721311475411  49.18032786885246,0" style="fill: white; stroke-width: 2px; stroke: black; fill-opacity: 0.95;"/></g><rect x="0" y="0" width="50" height="50" class="djs-hit" style="fill: none; stroke-opacity: 0; stroke: white; stroke-width: 15px;"/><rect x="-6" y="-6" width="62" height="62" class="djs-outline" style="fill: none;"/></g></g><g class="djs-group"><g class="djs-element djs-shape" data-element-id="DataStoreReference_091kezo" style="display: block;" transform="translate(930 387)"><g class="djs-visual"><path d="m  0,6.65 l  0,36.885245901639344 c  1.639344262295082,8.196721311475411 47.540983606557376,8.196721311475411  49.18032786885246,0 l  0,-36.885245901639344 c -1.639344262295082,-8.196721311475411 -47.540983606557376,-8.196721311475411 -49.18032786885246,0c  1.639344262295082,8.196721311475411 47.540983606557376,8.196721311475411  49.18032786885246,0 m  -49.18032786885246,5.737704918032787c  1.639344262295082,8.196721311475411 47.540983606557376,8.196721311475411 49.18032786885246,0m  -49.18032786885246,5.737704918032787c  1.639344262295082,8.196721311475411 47.540983606557376,8.196721311475411  49.18032786885246,0" style="fill: white; stroke-width: 2px; stroke: black; fill-opacity: 0.95;"/></g><rect x="0" y="0" width="50" height="50" class="djs-hit" style="fill: none; stroke-opacity: 0; stroke: white; stroke-width: 15px;"/><rect x="-6" y="-6" width="62" height="62" class="djs-outline" style="fill: none;"/></g></g><g class="djs-group"><g class="djs-element djs-shape" data-element-id="SequenceFlow_017dn8v_label" style="display: block;" transform="translate(352 272)"><g class="djs-visual"><text lineHeight="1.2" class="djs-label" style="font-family: Arial, sans-serif; font-size: 11px; font-weight: normal; fill: black;"><tspan x="0" y="9.899999999999999">NO</tspan></text></g><rect x="0" y="0" width="17" height="14" class="djs-hit" style="fill: none; stroke-opacity: 0; stroke: white; stroke-width: 15px;"/><rect x="-6" y="-6" width="29" height="26" class="djs-outline" style="fill: none;"/></g></g><g class="djs-group"><g class="djs-element djs-shape" data-element-id="SequenceFlow_1kir0tl_label" style="display: block;" transform="translate(301 321)"><g class="djs-visual"><text lineHeight="1.2" class="djs-label" style="font-family: Arial, sans-serif; font-size: 11px; font-weight: normal; fill: black;"><tspan x="0" y="9.899999999999999">YES</tspan></text></g><rect x="0" y="0" width="22" height="14" class="djs-hit" style="fill: none; stroke-opacity: 0; stroke: white; stroke-width: 15px;"/><rect x="-6" y="-6" width="34" height="26" class="djs-outline" style="fill: none;"/></g></g><g class="djs-group"><g class="djs-element djs-shape" data-element-id="SubProcess_0uf2j0q" style="display: block;" transform="translate(686 372)"><g class="djs-visual"><rect x="0" y="0" width="100" height="80" rx="10" ry="10" style="stroke: black; stroke-width: 2px; fill: white; fill-opacity: 0.95;"/><text lineHeight="1.2" class="djs-label" style="font-family: Arial, sans-serif; font-size: 12px; font-weight: normal; fill: black;"><tspan x="16.8203125" y="36.4">cast vote for </tspan><tspan x="19.3125" y="50.8">delegations</tspan></text><rect x="0" y="0" width="14" height="14" rx="0" ry="0" style="stroke: black; stroke-width: 1px; fill: white;" transform="translate(42.5 60)"/><path d="m42.5,60 m 7,2 l 0,10 m -5,-5 l 10,0" data-marker="sub-process" style="fill: white; stroke-width: 2px; stroke: black;"/></g><rect x="0" y="0" width="100" height="80" class="djs-hit" style="fill: none; stroke-opacity: 0; stroke: white; stroke-width: 15px;"/><rect x="-6" y="-6" width="112" height="92" class="djs-outline" style="fill: none;"/></g></g><g class="djs-group"><g class="djs-element djs-shape" data-element-id="DataStoreReference_1g09fyt_label" style="display: block;" transform="translate(818 441)"><g class="djs-visual"><text lineHeight="1.2" class="djs-label" style="font-family: Arial, sans-serif; font-size: 11px; font-weight: normal; fill: black;"><tspan x="0" y="9.899999999999999">valid checksums</tspan></text></g><rect x="0" y="0" width="81" height="14" class="djs-hit" style="fill: none; stroke-opacity: 0; stroke: white; stroke-width: 15px;"/><rect x="-6" y="-6" width="93" height="26" class="djs-outline" style="fill: none;"/></g></g><g class="djs-group"><g class="djs-element djs-shape" data-element-id="DataStoreReference_091kezo_label" style="display: block;" transform="translate(938 444)"><g class="djs-visual"><text lineHeight="1.2" class="djs-label" style="font-family: Arial, sans-serif; font-size: 11px; font-weight: normal; fill: black;"><tspan x="0" y="9.899999999999999">Ballots</tspan></text></g><rect x="0" y="0" width="34" height="14" class="djs-hit" style="fill: none; stroke-opacity: 0; stroke: white; stroke-width: 15px;"/><rect x="-6" y="-6" width="46" height="26" class="djs-outline" style="fill: none;"/></g></g><g class="djs-group"><g class="djs-element djs-shape" data-element-id="ExclusiveGateway_081zzt0_label" style="display: block;" transform="translate(288 234)"><g class="djs-visual"><text lineHeight="1.2" class="djs-label" style="font-family: Arial, sans-serif; font-size: 11px; font-weight: normal; fill: black;"><tspan x="0" y="9.899999999999999">want to become </tspan><tspan x="5.9140625" y="23.099999999999998">public proxy?</tspan></text></g><rect x="0" y="0" width="77" height="27" class="djs-hit" style="fill: none; stroke-opacity: 0; stroke: white; stroke-width: 15px;"/><rect x="-6" y="-6" width="89" height="39" class="djs-outline" style="fill: none;"/></g></g><g class="djs-group"><g class="djs-element djs-connection" data-element-id="Association_08o99ps" style="display: block;"><g class="djs-visual"><polyline points="202,329 186,368 " style="fill: none; stroke: black; stroke-width: 2px; stroke-dasharray: 0.5, 5; stroke-linecap: round; stroke-linejoin: round;"/></g><polyline points="202,329 186,368 " class="djs-hit" style="fill: none; stroke-opacity: 0; stroke: white; stroke-width: 15px;"/><rect x="180" y="323" width="28" height="51" class="djs-outline" style="fill: none;"/></g></g><g class="djs-group"><g class="djs-element djs-connection" data-element-id="Association_18twnqx" style="display: block;"><g class="djs-visual"><polyline points="388,435 349,444 " style="fill: none; stroke: black; stroke-width: 2px; stroke-dasharray: 0.5, 5; stroke-linecap: round; stroke-linejoin: round;"/></g><polyline points="388,435 349,444 " class="djs-hit" style="fill: none; stroke-opacity: 0; stroke: white; stroke-width: 15px;"/><rect x="343" y="429" width="51" height="21" class="djs-outline" style="fill: none;"/></g></g><g class="djs-group"><g class="djs-element djs-shape" data-element-id="SequenceFlow_10gfto4_label" style="display: block;" transform="translate(216 133)"><g class="djs-visual"><text lineHeight="1.2" class="djs-label" style="font-family: Arial, sans-serif; font-size: 11px; font-weight: normal; fill: black;"><tspan x="0" y="9.899999999999999">user, area</tspan></text></g><rect x="0" y="0" width="49" height="14" class="djs-hit" style="fill: none; stroke-opacity: 0; stroke: white; stroke-width: 15px;"/><rect x="-6" y="-6" width="61" height="26" class="djs-outline" style="fill: none;"/></g></g><g class="djs-group"><g class="djs-element djs-shape" data-element-id="SequenceFlow_011h60g_label" style="display: block;" transform="translate(742 131)"><g class="djs-visual"><text lineHeight="1.2" class="djs-label" style="font-family: Arial, sans-serif; font-size: 11px; font-weight: normal; fill: black;"><tspan x="10.28125" y="9.899999999999999">(anonymous) </tspan><tspan x="14.6171875" y="23.099999999999998">voterToken, </tspan><tspan x="0" y="36.3">poll.id, voteOrder</tspan></text></g><rect x="0" y="0" width="86" height="40" class="djs-hit" style="fill: none; stroke-opacity: 0; stroke: white; stroke-width: 15px;"/><rect x="-6" y="-6" width="98" height="52" class="djs-outline" style="fill: none;"/></g></g><g class="djs-group"><g class="djs-element djs-shape" data-element-id="SequenceFlow_0com3wn_label" style="display: block;" transform="translate(842 203)"><g class="djs-visual"><text lineHeight="1.2" class="djs-label" style="font-family: Arial, sans-serif; font-size: 11px; font-weight: normal; fill: black;"><tspan x="8.8671875" y="9.899999999999999">return </tspan><tspan x="0" y="23.099999999999998">checksum</tspan></text></g><rect x="0" y="0" width="50" height="27" class="djs-hit" style="fill: none; stroke-opacity: 0; stroke: white; stroke-width: 15px;"/><rect x="-6" y="-6" width="62" height="39" class="djs-outline" style="fill: none;"/></g></g><g class="djs-group"><g class="djs-element djs-shape" data-element-id="SequenceFlow_1skovu2_label" style="display: block;" transform="translate(441 188)"><g class="djs-visual"><text lineHeight="1.2" class="djs-label" style="font-family: Arial, sans-serif; font-size: 11px; font-weight: normal; fill: black;"><tspan x="9.9765625" y="9.899999999999999">voterToken is </tspan><tspan x="10.9375" y="23.099999999999998">returned and </tspan><tspan x="0" y="36.3">checksum is only </tspan><tspan x="1.71875" y="49.5">stored on server</tspan></text></g><rect x="0" y="0" width="85" height="53" class="djs-hit" style="fill: none; stroke-opacity: 0; stroke: white; stroke-width: 15px;"/><rect x="-6" y="-6" width="97" height="65" class="djs-outline" style="fill: none;"/></g></g></g></g><g class="djs-drag-group" style="pointer-events: none;" transform="translate(188 0)"/><g class="djs-drag-group" style="pointer-events: none;" transform="translate(-177 -110)"/><g class="djs-drag-group" style="pointer-events: none;" transform="translate(23 0)"/><g class="djs-drag-group" style="pointer-events: none;" transform="translate(-13 0)"/><g class="djs-drag-group" style="pointer-events: none;" transform="translate(-1 -95)"/><g class="djs-drag-group" style="pointer-events: none;" transform="translate(160 0)"/><g class="djs-drag-group" style="pointer-events: none;" transform="translate(1 -130)"/><g class="djs-drag-group" style="pointer-events: none;" transform="translate(-81 0)"/><g class="djs-drag-group" style="pointer-events: none;" transform="translate(-81 0)"/><g class="djs-drag-group" style="pointer-events: none;" transform="translate(0 0)"/><g class="djs-drag-group" style="pointer-events: none;" transform="translate(28 17)"/><g class="djs-drag-group" style="pointer-events: none;" transform="translate(-64 0)"/><g class="djs-drag-group" style="pointer-events: none;" transform="translate(0 28)"/><g class="djs-drag-group" style="pointer-events: none;" transform="translate(-46 129)"/><g class="djs-drag-group" style="pointer-events: none;" transform="translate(12 -18)"/><g class="djs-drag-group" style="pointer-events: none;" transform="translate(-1 32)"/><g class="djs-drag-group" style="pointer-events: none;" transform="translate(51 1)"/><g class="djs-drag-group" style="pointer-events: none;" transform="translate(-34 -45)"/><g class="djs-drag-group" style="pointer-events: none;" transform="translate(22 16)"/><g class="djs-drag-group" style="pointer-events: none;" transform="translate(-38 0)"/><g class="djs-drag-group" style="pointer-events: none;" transform="translate(-42 -1)"/><g class="djs-drag-group" style="pointer-events: none;" transform="translate(-7 1)"/><g class="djs-drag-group" style="pointer-events: none;" transform="translate(-40 -4)"/><g class="djs-drag-group" style="pointer-events: none;" transform="translate(-6 -3)"/><g class="djs-drag-group" style="pointer-events: none;" transform="translate(92 0)"/><g class="djs-drag-group" style="pointer-events: none;" transform="translate(11 0)"/><g class="djs-drag-group" style="pointer-events: none;" transform="translate(0 105)"/><g class="djs-drag-group" style="pointer-events: none;" transform="translate(37 1)"/><g class="djs-drag-group" style="pointer-events: none;" transform="translate(-1 6)"/><g class="djs-drag-group" style="pointer-events: none;" transform="translate(-1 22)"/><g class="djs-drag-group" style="pointer-events: none;" transform="translate(0 -19)"/><g class="djs-drag-group" style="pointer-events: none;" transform="translate(0 -6)"/><g class="djs-drag-group" style="pointer-events: none;" transform="translate(1 0)"/><g class="djs-drag-group" style="pointer-events: none;" transform="translate(0 0)"/><g class="djs-drag-group" style="pointer-events: none;" transform="translate(-30 -45)"/><g class="djs-drag-group" style="pointer-events: none;" transform="translate(-10 1)"/><g class="djs-drag-group" style="pointer-events: none;" transform="translate(0 8)"/><g class="djs-drag-group" style="pointer-events: none;" transform="translate(-1 -7)"/><g class="djs-drag-group" style="pointer-events: none;" transform="translate(7 1)"/><g class="djs-drag-group" style="pointer-events: none;" transform="translate(1 8)"/><g class="djs-drag-group" style="pointer-events: none;" transform="translate(-264 67)"/><g class="djs-drag-group" style="pointer-events: none;" transform="translate(33 21)"/><g class="djs-drag-group" style="pointer-events: none;" transform="translate(10 2)"/><g class="djs-drag-group" style="pointer-events: none;" transform="translate(19 1)"/><g class="djs-drag-group" style="pointer-events: none;" transform="translate(0 1)"/><g class="djs-drag-group" style="pointer-events: none;" transform="translate(-1 5)"/><g class="djs-drag-group" style="pointer-events: none;" transform="translate(0 -3)"/><g class="djs-drag-group" style="pointer-events: none;" transform="translate(0 -12)"/><g class="djs-drag-group" style="pointer-events: none;" transform="translate(-1 12)"/><g class="djs-drag-group" style="pointer-events: none;" transform="translate(2 -11)"/><g class="djs-drag-group" style="pointer-events: none;" transform="translate(101 0)"/><g class="djs-drag-group" style="pointer-events: none;" transform="translate(327 0)"/><g class="djs-drag-group" style="pointer-events: none;" transform="translate(140 0)"/><g class="djs-drag-group" style="pointer-events: none;" transform="translate(-86 -53)"/><g class="djs-drag-group" style="pointer-events: none;" transform="translate(-18 0)"/><g class="djs-drag-group" style="pointer-events: none;" transform="translate(-36 0)"/><g class="djs-drag-group" style="pointer-events: none;" transform="translate(-41 0)"/><g class="djs-drag-group" style="pointer-events: none;" transform="translate(21 0)"/><g class="djs-drag-group" style="pointer-events: none;" transform="translate(23 -2)"/><g class="djs-drag-group" style="pointer-events: none;" transform="translate(22 -2)"/><g class="djs-drag-group" style="pointer-events: none;" transform="translate(39 -15)"/><g class="djs-drag-group" style="pointer-events: none;" transform="translate(-30 7)"/><g class="djs-drag-group" style="pointer-events: none;" transform="translate(-13 22)"/><g class="djs-drag-group" style="pointer-events: none;" transform="translate(0 -15)"/><g class="djs-drag-group" style="pointer-events: none;" transform="translate(0 -15)"/><g class="djs-drag-group" style="pointer-events: none;" transform="translate(0 -7)"/><g class="djs-drag-group" style="pointer-events: none;" transform="translate(-45 -48)"/><g class="djs-drag-group" style="pointer-events: none;" transform="translate(-109 0)"/><g class="djs-drag-group" style="pointer-events: none;" transform="translate(0 111)"/><g class="djs-drag-group" style="pointer-events: none;" transform="translate(-26 -161)"/><g class="djs-drag-group" style="pointer-events: none;" transform="translate(-188 170)"/><g class="djs-drag-group" style="pointer-events: none;" transform="translate(0 -8)"/><g class="djs-drag-group" style="pointer-events: none;" transform="translate(3 7)"/><g class="djs-drag-group" style="pointer-events: none;" transform="translate(0 108)"/><g class="djs-drag-group" style="pointer-events: none;" transform="translate(30 29)"/><g class="djs-drag-group" style="pointer-events: none;" transform="translate(8 -15)"/><g class="djs-drag-group" style="pointer-events: none;" transform="translate(140 61)"/><g class="djs-drag-group" style="pointer-events: none;" transform="translate(1 13)"/><g class="djs-drag-group" style="pointer-events: none;" transform="translate(30 4)"/></svg>