<?xml version="1.0" encoding="utf-8"?>
<!-- created with bpmn-js / http://bpmn.io -->
<!DOCTYPE svg PUBLIC "-//W3C//DTD SVG 1.1//EN" "http://www.w3.org/Graphics/SVG/1.1/DTD/svg11.dtd">
<svg xmlns="http://www.w3.org/2000/svg" xmlns:xlink="http://www.w3.org/1999/xlink" width="1509" height="723" viewBox="15 11 1509 723" version="1.1"><defs><marker id="sequenceflow-end-white-black-5995rk008unxhlf681x07bbo9" viewBox="0 0 20 20" refX="11" refY="10" markerWidth="10" markerHeight="10" orient="auto"><path d="M 1 5 L 11 10 L 1 15 Z" style="fill: black; stroke-width: 1px; stroke-linecap: round; stroke-dasharray: 10000, 1; stroke: black;"/></marker></defs><g class="djs-group"><g class="djs-element djs-shape" data-element-id="Participant_1qrz8wy" style="display: block;" transform="translate(21 17)"><g class="djs-visual"><rect x="0" y="0" width="1497" height="711" rx="0" ry="0" style="stroke: black; stroke-width: 2px; fill: white; fill-opacity: 0.95;"/><polyline points="30,0 30,711 " style="fill: none; stroke: black; stroke-width: 2px;"/><text lineHeight="1.2" class="djs-label" style="font-family: Arial, sans-serif; font-size: 12px; font-weight: normal; fill: black;" transform="matrix(-1.83697e-16 -1 1 -1.83697e-16 0 711)"><tspan x="355.5" y="18.6"/></text></g><rect x="0" y="0" width="1497" height="711" class="djs-hit" style="fill: none; stroke-opacity: 0; stroke: white; stroke-width: 15px;"/><rect x="-6" y="-6" width="1509" height="723" class="djs-outline" style="fill: none;"/></g><g class="djs-children"><g class="djs-group"><g class="djs-element djs-shape" data-element-id="Lane_1sjoi81" style="display: block;" transform="translate(51 17)"><g class="djs-visual"><rect x="0" y="0" width="1467" height="180" rx="0" ry="0" style="stroke: black; stroke-width: 2px; fill: white; fill-opacity: 0.35;"/><text lineHeight="1.2" class="djs-label" style="font-family: Arial, sans-serif; font-size: 12px; font-weight: normal; fill: black;" transform="matrix(-1.83697e-16 -1 1 -1.83697e-16 0 180)"><tspan x="69.828125" y="18.6">Voter A</tspan></text></g><rect x="0" y="0" width="1467" height="180" class="djs-hit" style="fill: none; stroke-opacity: 0; stroke: white; stroke-width: 15px;"/><rect x="-6" y="-6" width="1479" height="192" class="djs-outline" style="fill: none;"/></g></g><g class="djs-group"><g class="djs-element djs-shape" data-element-id="Lane_124ovv9" style="display: block;" transform="translate(51 197)"><g class="djs-visual"><rect x="0" y="0" width="1467" height="180" rx="0" ry="0" style="stroke: black; stroke-width: 2px; fill: white; fill-opacity: 0.35;"/><text lineHeight="1.2" class="djs-label" style="font-family: Arial, sans-serif; font-size: 12px; font-weight: normal; fill: black;" transform="matrix(-1.83697e-16 -1 1 -1.83697e-16 0 180)"><tspan x="49.3203125" y="18.6">Voter B (Proxy)</tspan></text></g><rect x="0" y="0" width="1467" height="180" class="djs-hit" style="fill: none; stroke-opacity: 0; stroke: white; stroke-width: 15px;"/><rect x="-6" y="-6" width="1479" height="192" class="djs-outline" style="fill: none;"/></g></g><g class="djs-group"><g class="djs-element djs-shape" data-element-id="Lane_094w2ox" style="display: block;" transform="translate(51 377)"><g class="djs-visual"><rect x="0" y="0" width="1467" height="351" rx="0" ry="0" style="stroke: black; stroke-width: 2px; fill: white; fill-opacity: 0.35;"/><text lineHeight="1.2" class="djs-label" style="font-family: Arial, sans-serif; font-size: 12px; font-weight: normal; fill: black;" transform="matrix(-1.83697e-16 -1 1 -1.83697e-16 0 351)"><tspan x="157.328125" y="18.6">Server</tspan></text></g><rect x="0" y="0" width="1467" height="351" class="djs-hit" style="fill: none; stroke-opacity: 0; stroke: white; stroke-width: 15px;"/><rect x="-6" y="-6" width="1479" height="363" class="djs-outline" style="fill: none;"/></g></g><g class="djs-group"><g class="djs-element djs-shape" data-element-id="TextAnnotation_0ibf5xd" style="display: block;" transform="translate(751 540)"><g class="djs-visual"><rect x="0" y="0" width="73" height="67" rx="0" ry="0" style="stroke: none; stroke-width: 2px; fill: none;"/><path d="m 0, 0 m 10,0 l -10,0 l 0,67 l 10,0" style="fill: none; stroke-width: 2px; stroke: black;"/><text lineHeight="1.2" class="djs-label" style="font-family: Arial, sans-serif; font-size: 12px; font-weight: normal; fill: black;"><tspan x="5" y="15.799999999999999">for each </tspan><tspan x="5" y="30.199999999999996">delegated </tspan><tspan x="5" y="44.599999999999994">voterToken </tspan><tspan x="5" y="58.99999999999999">(if any)</tspan></text></g><rect x="0" y="0" width="73" height="67" class="djs-hit" style="fill: none; stroke-opacity: 0; stroke: white; stroke-width: 15px;"/><rect x="-6" y="-6" width="85" height="79" class="djs-outline" style="fill: none;"/></g></g><g class="djs-group"><g class="djs-element djs-connection" data-element-id="SequenceFlow_0ji779f" style="display: block;"><g class="djs-visual"><path d="m  142,109L183,109 " style="fill: none; stroke-width: 2px; stroke: black; stroke-linejoin: round; marker-end: url('#sequenceflow-end-white-black-5995rk008unxhlf681x07bbo9');"/></g><polyline points="142,109 183,109 " class="djs-hit" style="fill: none; stroke-opacity: 0; stroke: white; stroke-width: 15px;"/><rect x="136" y="103" width="53" height="12" class="djs-outline" style="fill: none;"/></g></g><g class="djs-group"><g class="djs-element djs-connection" data-element-id="SequenceFlow_0dy93yw" style="display: block;"><g class="djs-visual"><path d="m  233,149L233,432 " style="fill: none; stroke-width: 2px; stroke: black; stroke-linejoin: round; marker-end: url('#sequenceflow-end-white-black-5995rk008unxhlf681x07bbo9');"/></g><polyline points="233,149 233,432 " class="djs-hit" style="fill: none; stroke-opacity: 0; stroke: white; stroke-width: 15px;"/><rect x="227" y="143" width="12" height="295" class="djs-outline" style="fill: none;"/></g></g><g class="djs-group"><g class="djs-element djs-connection" data-element-id="SequenceFlow_0vry7fk" style="display: block;"><g class="djs-visual"><path d="m  383,432L383,149 " style="fill: none; stroke-width: 2px; stroke: black; stroke-linejoin: round; marker-end: url('#sequenceflow-end-white-black-5995rk008unxhlf681x07bbo9');"/></g><polyline points="383,432 383,149 " class="djs-hit" style="fill: none; stroke-opacity: 0; stroke: white; stroke-width: 15px;"/><rect x="377" y="143" width="12" height="295" class="djs-outline" style="fill: none;"/></g></g><g class="djs-group"><g class="djs-element djs-connection" data-element-id="SequenceFlow_1f5wh0t" style="display: block;"><g class="djs-visual"><path d="m  233,512L233,534 " style="fill: none; stroke-width: 2px; stroke: black; stroke-linejoin: round; marker-end: url('#sequenceflow-end-white-black-5995rk008unxhlf681x07bbo9');"/></g><polyline points="233,512 233,534 " class="djs-hit" style="fill: none; stroke-opacity: 0; stroke: white; stroke-width: 15px;"/><rect x="227" y="506" width="12" height="34" class="djs-outline" style="fill: none;"/></g></g><g class="djs-group"><g class="djs-element djs-connection" data-element-id="SequenceFlow_0yd1k2t" style="display: block;"><g class="djs-visual"><path d="m  283,574L333,574 " style="fill: none; stroke-width: 2px; stroke: black; stroke-linejoin: round; marker-end: url('#sequenceflow-end-white-black-5995rk008unxhlf681x07bbo9');"/></g><polyline points="283,574 333,574 " class="djs-hit" style="fill: none; stroke-opacity: 0; stroke: white; stroke-width: 15px;"/><rect x="277" y="568" width="62" height="12" class="djs-outline" style="fill: none;"/></g></g><g class="djs-group"><g class="djs-element djs-connection" data-element-id="SequenceFlow_0i2o6fx" style="display: block;"><g class="djs-visual"><path d="m  383,534L383,512 " style="fill: none; stroke-width: 2px; stroke: black; stroke-linejoin: round; marker-end: url('#sequenceflow-end-white-black-5995rk008unxhlf681x07bbo9');"/></g><polyline points="383,534 383,512 " class="djs-hit" style="fill: none; stroke-opacity: 0; stroke: white; stroke-width: 15px;"/><rect x="377" y="506" width="12" height="34" class="djs-outline" style="fill: none;"/></g></g><g class="djs-group"><g class="djs-element djs-connection" data-element-id="SequenceFlow_117bveo" style="display: block;"><g class="djs-visual"><path d="m  433,109L1260,109 " style="fill: none; stroke-width: 2px; stroke: black; stroke-linejoin: round; marker-end: url('#sequenceflow-end-white-black-5995rk008unxhlf681x07bbo9');"/></g><polyline points="433,109 1260,109 " class="djs-hit" style="fill: none; stroke-opacity: 0; stroke: white; stroke-width: 15px;"/><rect x="427" y="103" width="839" height="12" class="djs-outline" style="fill: none;"/></g></g><g class="djs-group"><g class="djs-element djs-connection" data-element-id="SequenceFlow_11gxohz" style="display: block;"><g class="djs-visual"><path d="m  522,282L572,282 " style="fill: none; stroke-width: 2px; stroke: black; stroke-linejoin: round; marker-end: url('#sequenceflow-end-white-black-5995rk008unxhlf681x07bbo9');"/></g><polyline points="522,282 572,282 " class="djs-hit" style="fill: none; stroke-opacity: 0; stroke: white; stroke-width: 15px;"/><rect x="516" y="276" width="62" height="12" class="djs-outline" style="fill: none;"/></g></g><g class="djs-group"><g class="djs-element djs-connection" data-element-id="SequenceFlow_10gfto4" style="display: block;"><g class="djs-visual"><path d="m  622,322L622,432 " style="fill: none; stroke-width: 2px; stroke: black; stroke-linejoin: round; marker-end: url('#sequenceflow-end-white-black-5995rk008unxhlf681x07bbo9');"/></g><polyline points="622,322 622,432 " class="djs-hit" style="fill: none; stroke-opacity: 0; stroke: white; stroke-width: 15px;"/><rect x="616" y="316" width="12" height="122" class="djs-outline" style="fill: none;"/></g></g><g class="djs-group"><g class="djs-element djs-connection" data-element-id="SequenceFlow_1hkfx5f" style="display: block;"><g class="djs-visual"><path d="m  672,472L722,472 " style="fill: none; stroke-width: 2px; stroke: black; stroke-linejoin: round; marker-end: url('#sequenceflow-end-white-black-5995rk008unxhlf681x07bbo9');"/></g><polyline points="672,472 722,472 " class="djs-hit" style="fill: none; stroke-opacity: 0; stroke: white; stroke-width: 15px;"/><rect x="666" y="466" width="62" height="12" class="djs-outline" style="fill: none;"/></g></g><g class="djs-group"><g class="djs-element djs-connection" data-element-id="SequenceFlow_1ccajk4" style="display: block;"><g class="djs-visual"><path d="m  772,432L772,322 " style="fill: none; stroke-width: 2px; stroke: black; stroke-linejoin: round; marker-end: url('#sequenceflow-end-white-black-5995rk008unxhlf681x07bbo9');"/></g><polyline points="772,432 772,322 " class="djs-hit" style="fill: none; stroke-opacity: 0; stroke: white; stroke-width: 15px;"/><rect x="766" y="316" width="12" height="122" class="djs-outline" style="fill: none;"/></g></g><g class="djs-group"><g class="djs-element djs-connection" data-element-id="SequenceFlow_011h60g" style="display: block;"><g class="djs-visual"><path d="m  822,282L856,282 L856,472 L901,472 " style="fill: none; stroke-width: 2px; stroke: black; stroke-linejoin: round; marker-end: url('#sequenceflow-end-white-black-5995rk008unxhlf681x07bbo9');"/></g><polyline points="822,282 856,282 856,472 901,472 " class="djs-hit" style="fill: none; stroke-opacity: 0; stroke: white; stroke-width: 15px;"/><rect x="816" y="276" width="91" height="202" class="djs-outline" style="fill: none;"/></g></g><g class="djs-group"><g class="djs-element djs-connection" data-element-id="SequenceFlow_0j06u1a" style="display: block;"><g class="djs-visual"><path d="m  822,282L856,282 L856,624 L881,624 " style="fill: none; stroke-width: 2px; stroke: black; stroke-linejoin: round; marker-end: url('#sequenceflow-end-white-black-5995rk008unxhlf681x07bbo9');"/></g><polyline points="822,282 856,282 856,624 881,624 " class="djs-hit" style="fill: none; stroke-opacity: 0; stroke: white; stroke-width: 15px;"/><rect x="816" y="276" width="71" height="354" class="djs-outline" style="fill: none;"/></g></g><g class="djs-group"><g class="djs-element djs-connection" data-element-id="SequenceFlow_020mwdc" style="display: block;"><g class="djs-visual"><path d="m  1001,472L1050,472 " style="fill: none; stroke-width: 2px; stroke: black; stroke-linejoin: round; marker-end: url('#sequenceflow-end-white-black-5995rk008unxhlf681x07bbo9');"/></g><polyline points="1001,472 1050,472 " class="djs-hit" style="fill: none; stroke-opacity: 0; stroke: white; stroke-width: 15px;"/><rect x="995" y="466" width="61" height="12" class="djs-outline" style="fill: none;"/></g></g><g class="djs-group"><g class="djs-element djs-connection" data-element-id="SequenceFlow_0rhanm2" style="display: block;"><g class="djs-visual"><path d="m  1100,432L1100,322 " style="fill: none; stroke-width: 2px; stroke: black; stroke-linejoin: round; marker-end: url('#sequenceflow-end-white-black-5995rk008unxhlf681x07bbo9');"/></g><polyline points="1100,432 1100,322 " class="djs-hit" style="fill: none; stroke-opacity: 0; stroke: white; stroke-width: 15px;"/><rect x="1094" y="316" width="12" height="122" class="djs-outline" style="fill: none;"/></g></g><g class="djs-group"><g class="djs-element djs-connection" data-element-id="SequenceFlow_060e86p" style="display: block;"><g class="djs-visual"><path d="m  1150,282L1214,282 " style="fill: none; stroke-width: 2px; stroke: black; stroke-linejoin: round; marker-end: url('#sequenceflow-end-white-black-5995rk008unxhlf681x07bbo9');"/></g><polyline points="1150,282 1214,282 " class="djs-hit" style="fill: none; stroke-opacity: 0; stroke: white; stroke-width: 15px;"/><rect x="1144" y="276" width="76" height="12" class="djs-outline" style="fill: none;"/></g></g><g class="djs-group"><g class="djs-element djs-connection" data-element-id="SequenceFlow_1vsfqc7" style="display: block;"><g class="djs-visual"><path d="m  1285,624L1310,624 L1310,149 " style="fill: none; stroke-width: 2px; stroke: black; stroke-linejoin: round; marker-end: url('#sequenceflow-end-white-black-5995rk008unxhlf681x07bbo9');"/></g><polyline points="1285,624 1310,624 1310,149 " class="djs-hit" style="fill: none; stroke-opacity: 0; stroke: white; stroke-width: 15px;"/><rect x="1279" y="143" width="37" height="487" class="djs-outline" style="fill: none;"/></g></g><g class="djs-group"><g class="djs-element djs-connection" data-element-id="SequenceFlow_1eicgqb" style="display: block;"><g class="djs-visual"><path d="m  1360,109L1429,109 " style="fill: none; stroke-width: 2px; stroke: black; stroke-linejoin: round; marker-end: url('#sequenceflow-end-white-black-5995rk008unxhlf681x07bbo9');"/></g><polyline points="1360,109 1429,109 " class="djs-hit" style="fill: none; stroke-opacity: 0; stroke: white; stroke-width: 15px;"/><rect x="1354" y="103" width="81" height="12" class="djs-outline" style="fill: none;"/></g></g><g class="djs-group"><g class="djs-element djs-shape" data-element-id="StartEvent_10fu5ax" style="display: block;" transform="translate(106 91)"><g class="djs-visual"><circle cx="18" cy="18" r="18" style="stroke: black; stroke-width: 2px; fill: white; fill-opacity: 0.95;"/></g><rect x="0" y="0" width="36" height="36" class="djs-hit" style="fill: none; stroke-opacity: 0; stroke: white; stroke-width: 15px;"/><rect x="-6" y="-6" width="48" height="48" class="djs-outline" style="fill: none;"/></g></g><g class="djs-group"><g class="djs-element djs-shape" data-element-id="Task_1kotdxj" style="display: block;" transform="translate(183 69)"><g class="djs-visual"><rect x="0" y="0" width="100" height="80" rx="10" ry="10" style="stroke: black; stroke-width: 2px; fill: white; fill-opacity: 0.95;"/><text lineHeight="1.2" class="djs-label" style="font-family: Arial, sans-serif; font-size: 12px; font-weight: normal; fill: black;"><tspan x="9.15625" y="36.4">assign Proxy in </tspan><tspan x="37.6640625" y="50.8">Area</tspan></text></g><rect x="0" y="0" width="100" height="80" class="djs-hit" style="fill: none; stroke-opacity: 0; stroke: white; stroke-width: 15px;"/><rect x="-6" y="-6" width="112" height="92" class="djs-outline" style="fill: none;"/></g></g><g class="djs-group"><g class="djs-element djs-shape" data-element-id="Task_03393rv" style="display: block;" transform="translate(333 69)"><g class="djs-visual"><rect x="0" y="0" width="100" height="80" rx="10" ry="10" style="stroke: black; stroke-width: 2px; fill: white; fill-opacity: 0.95;"/><text lineHeight="1.2" class="djs-label" style="font-family: Arial, sans-serif; font-size: 12px; font-weight: normal; fill: black;"><tspan x="22.1640625" y="36.4">remember </tspan><tspan x="16.4921875" y="50.8">chechsum A</tspan></text></g><rect x="0" y="0" width="100" height="80" class="djs-hit" style="fill: none; stroke-opacity: 0; stroke: white; stroke-width: 15px;"/><rect x="-6" y="-6" width="112" height="92" class="djs-outline" style="fill: none;"/></g></g><g class="djs-group"><g class="djs-element djs-shape" data-element-id="Task_0nyymck" style="display: block;" transform="translate(183 432)"><g class="djs-visual"><rect x="0" y="0" width="100" height="80" rx="10" ry="10" style="stroke: black; stroke-width: 2px; fill: white; fill-opacity: 0.95;"/><text lineHeight="1.2" class="djs-label" style="font-family: Arial, sans-serif; font-size: 12px; font-weight: normal; fill: black;"><tspan x="35" y="36.4">insert </tspan><tspan x="21.15625" y="50.8">Delegation</tspan></text></g><rect x="0" y="0" width="100" height="80" class="djs-hit" style="fill: none; stroke-opacity: 0; stroke: white; stroke-width: 15px;"/><rect x="-6" y="-6" width="112" height="92" class="djs-outline" style="fill: none;"/></g></g><g class="djs-group"><g class="djs-element djs-shape" data-element-id="Task_0rafkff" style="display: block;" transform="translate(183 534)"><g class="djs-visual"><rect x="0" y="0" width="100" height="80" rx="10" ry="10" style="stroke: black; stroke-width: 2px; fill: white; fill-opacity: 0.95;"/><text lineHeight="1.2" class="djs-label" style="font-family: Arial, sans-serif; font-size: 12px; font-weight: normal; fill: black;"><tspan x="33.1640625" y="29.200000000000003">create </tspan><tspan x="11.984375" y="43.6">voterToken for </tspan><tspan x="29.828125" y="58">Voter A</tspan></text></g><rect x="0" y="0" width="100" height="80" class="djs-hit" style="fill: none; stroke-opacity: 0; stroke: white; stroke-width: 15px;"/><rect x="-6" y="-6" width="112" height="92" class="djs-outline" style="fill: none;"/></g></g><g class="djs-group"><g class="djs-element djs-shape" data-element-id="Task_1wtn2lh" style="display: block;" transform="translate(333 534)"><g class="djs-visual"><rect x="0" y="0" width="100" height="80" rx="10" ry="10" style="stroke: black; stroke-width: 2px; fill: white; fill-opacity: 0.95;"/><text lineHeight="1.2" class="djs-label" style="font-family: Arial, sans-serif; font-size: 12px; font-weight: normal; fill: black;"><tspan x="8.4765625" y="29.200000000000003">store delegated </tspan><tspan x="8.484375" y="43.6">voterToken A at </tspan><tspan x="29" y="58">Proxy B</tspan></text></g><rect x="0" y="0" width="100" height="80" class="djs-hit" style="fill: none; stroke-opacity: 0; stroke: white; stroke-width: 15px;"/><rect x="-6" y="-6" width="112" height="92" class="djs-outline" style="fill: none;"/></g></g><g class="djs-group"><g class="djs-element djs-shape" data-element-id="Task_064adq5" style="display: block;" transform="translate(333 432)"><g class="djs-visual"><rect x="0" y="0" width="100" height="80" rx="10" ry="10" style="stroke: black; stroke-width: 2px; fill: white; fill-opacity: 0.95;"/><text lineHeight="1.2" class="djs-label" style="font-family: Arial, sans-serif; font-size: 12px; font-weight: normal; fill: black;"><tspan x="7.984375" y="36.4">store checksum </tspan><tspan x="6.3203125" y="50.8">for voterToken A</tspan></text></g><rect x="0" y="0" width="100" height="80" class="djs-hit" style="fill: none; stroke-opacity: 0; stroke: white; stroke-width: 15px;"/><rect x="-6" y="-6" width="112" height="92" class="djs-outline" style="fill: none;"/></g></g><g class="djs-group"><g class="djs-element djs-shape" data-element-id="StartEvent_10fu5ax_label" style="display: block;" transform="translate(93 134)"><g class="djs-visual"><text lineHeight="1.2" class="djs-label" style="font-family: Arial, sans-serif; font-size: 11px; font-weight: normal; fill: black;"><tspan x="0" y="9.899999999999999">Assign proxy</tspan></text></g><rect x="0" y="0" width="63" height="14" class="djs-hit" style="fill: none; stroke-opacity: 0; stroke: white; stroke-width: 15px;"/><rect x="-6" y="-6" width="75" height="26" class="djs-outline" style="fill: none;"/></g></g><g class="djs-group"><g class="djs-element djs-shape" data-element-id="SequenceFlow_0dy93yw_label" style="display: block;" transform="translate(241 313)"><g class="djs-visual"><text lineHeight="1.2" class="djs-label" style="font-family: Arial, sans-serif; font-size: 11px; font-weight: normal; fill: black;"><tspan x="9.9921875" y="9.899999999999999">fromUser, </tspan><tspan x="0" y="23.099999999999998">toProxy, area, </tspan><tspan x="9.796875" y="36.3">password</tspan></text></g><rect x="0" y="0" width="67" height="40" class="djs-hit" style="fill: none; stroke-opacity: 0; stroke: white; stroke-width: 15px;"/><rect x="-6" y="-6" width="79" height="52" class="djs-outline" style="fill: none;"/></g></g><g class="djs-group"><g class="djs-element djs-shape" data-element-id="StartEvent_1p32udv" style="display: block;" transform="translate(486 264)"><g class="djs-visual"><circle cx="18" cy="18" r="18" style="stroke: black; stroke-width: 2px; fill: white; fill-opacity: 0.95;"/></g><rect x="0" y="0" width="36" height="36" class="djs-hit" style="fill: none; stroke-opacity: 0; stroke: white; stroke-width: 15px;"/><rect x="-6" y="-6" width="48" height="48" class="djs-outline" style="fill: none;"/></g></g><g class="djs-group"><g class="djs-element djs-shape" data-element-id="Task_133rebd" style="display: block;" transform="translate(572 242)"><g class="djs-visual"><rect x="0" y="0" width="100" height="80" rx="10" ry="10" style="stroke: black; stroke-width: 2px; fill: white; fill-opacity: 0.95;"/><text lineHeight="1.2" class="djs-label" style="font-family: Arial, sans-serif; font-size: 12px; font-weight: normal; fill: black;"><tspan x="28.828125" y="29.200000000000003">get own </tspan><tspan x="11.984375" y="43.6">voterToken for </tspan><tspan x="37.828125" y="58">area</tspan></text></g><rect x="0" y="0" width="100" height="80" class="djs-hit" style="fill: none; stroke-opacity: 0; stroke: white; stroke-width: 15px;"/><rect x="-6" y="-6" width="112" height="92" class="djs-outline" style="fill: none;"/></g></g><g class="djs-group"><g class="djs-element djs-shape" data-element-id="Task_0vg0lhh" style="display: block;" transform="translate(572 432)"><g class="djs-visual"><rect x="0" y="0" width="100" height="80" rx="10" ry="10" style="stroke: black; stroke-width: 2px; fill: white; fill-opacity: 0.95;"/><text lineHeight="1.2" class="djs-label" style="font-family: Arial, sans-serif; font-size: 12px; font-weight: normal; fill: black;"><tspan x="33.1640625" y="36.4">create </tspan><tspan x="6.8125" y="50.8">voterToken for B</tspan></text></g><rect x="0" y="0" width="100" height="80" class="djs-hit" style="fill: none; stroke-opacity: 0; stroke: white; stroke-width: 15px;"/><rect x="-6" y="-6" width="112" height="92" class="djs-outline" style="fill: none;"/></g></g><g class="djs-group"><g class="djs-element djs-shape" data-element-id="Task_0rmevng" style="display: block;" transform="translate(722 432)"><g class="djs-visual"><rect x="0" y="0" width="100" height="80" rx="10" ry="10" style="stroke: black; stroke-width: 2px; fill: white; fill-opacity: 0.95;"/><text lineHeight="1.2" class="djs-label" style="font-family: Arial, sans-serif; font-size: 12px; font-weight: normal; fill: black;"><tspan x="35" y="36.4">store </tspan><tspan x="17.328125" y="50.8">checksum B</tspan></text></g><rect x="0" y="0" width="100" height="80" class="djs-hit" style="fill: none; stroke-opacity: 0; stroke: white; stroke-width: 15px;"/><rect x="-6" y="-6" width="112" height="92" class="djs-outline" style="fill: none;"/></g></g><g class="djs-group"><g class="djs-element djs-shape" data-element-id="Task_0qosxh7" style="display: block;" transform="translate(722 242)"><g class="djs-visual"><rect x="0" y="0" width="100" height="80" rx="10" ry="10" style="stroke: black; stroke-width: 2px; fill: white; fill-opacity: 0.95;"/><text lineHeight="1.2" class="djs-label" style="font-family: Arial, sans-serif; font-size: 12px; font-weight: normal; fill: black;"><tspan x="13.4921875" y="36.4">cast vote with </tspan><tspan x="15.484375" y="50.8">voterToken B</tspan></text></g><rect x="0" y="0" width="100" height="80" class="djs-hit" style="fill: none; stroke-opacity: 0; stroke: white; stroke-width: 15px;"/><rect x="-6" y="-6" width="112" height="92" class="djs-outline" style="fill: none;"/></g></g><g class="djs-group"><g class="djs-element djs-shape" data-element-id="Task_0as8ggd" style="display: block;" transform="translate(901 432)"><g class="djs-visual"><rect x="0" y="0" width="100" height="80" rx="10" ry="10" style="stroke: black; stroke-width: 2px; fill: white; fill-opacity: 0.95;"/><text lineHeight="1.2" class="djs-label" style="font-family: Arial, sans-serif; font-size: 12px; font-weight: normal; fill: black;"><tspan x="29.65625" y="22">validate </tspan><tspan x="15.484375" y="36.4">voterToken B </tspan><tspan x="15.484375" y="50.8">agaist stored </tspan><tspan x="19.9921875" y="65.19999999999999">checksums</tspan></text></g><rect x="0" y="0" width="100" height="80" class="djs-hit" style="fill: none; stroke-opacity: 0; stroke: white; stroke-width: 15px;"/><rect x="-6" y="-6" width="112" height="92" class="djs-outline" style="fill: none;"/></g></g><g class="djs-group"><g class="djs-element djs-shape" data-element-id="Task_0lgy27c" style="display: block;" transform="translate(1050 432)"><g class="djs-visual"><rect x="0" y="0" width="100" height="80" rx="10" ry="10" style="stroke: black; stroke-width: 2px; fill: white; fill-opacity: 0.95;"/><text lineHeight="1.2" class="djs-label" style="font-family: Arial, sans-serif; font-size: 12px; font-weight: normal; fill: black;"><tspan x="18.984375" y="36.4">store ballot </tspan><tspan x="18.8203125" y="50.8">as ownVote</tspan></text></g><rect x="0" y="0" width="100" height="80" class="djs-hit" style="fill: none; stroke-opacity: 0; stroke: white; stroke-width: 15px;"/><rect x="-6" y="-6" width="112" height="92" class="djs-outline" style="fill: none;"/></g></g><g class="djs-group"><g class="djs-element djs-shape" data-element-id="Task_1f0dcth" style="display: block;" transform="translate(1050 242)"><g class="djs-visual"><rect x="0" y="0" width="100" height="80" rx="10" ry="10" style="stroke: black; stroke-width: 2px; fill: white; fill-opacity: 0.95;"/><text lineHeight="1.2" class="djs-label" style="font-family: Arial, sans-serif; font-size: 12px; font-weight: normal; fill: black;"><tspan x="10.484375" y="29.200000000000003">check result of </tspan><tspan x="26.6640625" y="43.6">vote with </tspan><tspan x="17.328125" y="58">checksum B</tspan></text></g><rect x="0" y="0" width="100" height="80" class="djs-hit" style="fill: none; stroke-opacity: 0; stroke: white; stroke-width: 15px;"/><rect x="-6" y="-6" width="112" height="92" class="djs-outline" style="fill: none;"/></g></g><g class="djs-group"><g class="djs-element djs-shape" data-element-id="Task_0178w3j" style="display: block;" transform="translate(1260 69)"><g class="djs-visual"><rect x="0" y="0" width="100" height="80" rx="10" ry="10" style="stroke: black; stroke-width: 2px; fill: white; fill-opacity: 0.95;"/><text lineHeight="1.2" class="djs-label" style="font-family: Arial, sans-serif; font-size: 12px; font-weight: normal; fill: black;"><tspan x="10.484375" y="29.200000000000003">check result of </tspan><tspan x="26.6640625" y="43.6">vote with </tspan><tspan x="16.828125" y="58">checksum A</tspan></text></g><rect x="0" y="0" width="100" height="80" class="djs-hit" style="fill: none; stroke-opacity: 0; stroke: white; stroke-width: 15px;"/><rect x="-6" y="-6" width="112" height="92" class="djs-outline" style="fill: none;"/></g></g><g class="djs-group"><g class="djs-element djs-shape" data-element-id="SequenceFlow_0vry7fk_label" style="display: block;" transform="translate(316 249)"><g class="djs-visual"><text lineHeight="1.2" class="djs-label" style="font-family: Arial, sans-serif; font-size: 11px; font-weight: normal; fill: black;"><tspan x="0" y="9.899999999999999">checksum A</tspan></text></g><rect x="0" y="0" width="61" height="14" class="djs-hit" style="fill: none; stroke-opacity: 0; stroke: white; stroke-width: 15px;"/><rect x="-6" y="-6" width="73" height="26" class="djs-outline" style="fill: none;"/></g></g><g class="djs-group"><g class="djs-element djs-shape" data-element-id="SequenceFlow_10gfto4_label" style="display: block;" transform="translate(626 390)"><g class="djs-visual"><text lineHeight="1.2" class="djs-label" style="font-family: Arial, sans-serif; font-size: 11px; font-weight: normal; fill: black;"><tspan x="0" y="9.899999999999999">user.id, password,</tspan><tspan x="27.5078125" y="23.099999999999998">area.id</tspan></text></g><rect x="0" y="0" width="89" height="27" class="djs-hit" style="fill: none; stroke-opacity: 0; stroke: white; stroke-width: 15px;"/><rect x="-6" y="-6" width="101" height="39" class="djs-outline" style="fill: none;"/></g></g><g class="djs-group"><g class="djs-element djs-shape" data-element-id="SequenceFlow_0rhanm2_label" style="display: block;" transform="translate(1106 332)"><g class="djs-visual"><text lineHeight="1.2" class="djs-label" style="font-family: Arial, sans-serif; font-size: 11px; font-weight: normal; fill: black;"><tspan x="14.390625" y="9.899999999999999">return </tspan><tspan x="0" y="23.099999999999998">checksum B</tspan></text></g><rect x="0" y="0" width="61" height="27" class="djs-hit" style="fill: none; stroke-opacity: 0; stroke: white; stroke-width: 15px;"/><rect x="-6" y="-6" width="73" height="39" class="djs-outline" style="fill: none;"/></g></g><g class="djs-group"><g class="djs-element djs-shape" data-element-id="EndEvent_0ztn5o2" style="display: block;" transform="translate(1429 91)"><g class="djs-visual"><circle cx="18" cy="18" r="18" style="stroke: black; stroke-width: 4px; fill: white; fill-opacity: 0.95;"/></g><rect x="0" y="0" width="36" height="36" class="djs-hit" style="fill: none; stroke-opacity: 0; stroke: white; stroke-width: 15px;"/><rect x="-6" y="-6" width="48" height="48" class="djs-outline" style="fill: none;"/></g></g><g class="djs-group"><g class="djs-element djs-shape" data-element-id="EndEvent_04e6n7q" style="display: block;" transform="translate(1214 264)"><g class="djs-visual"><circle cx="18" cy="18" r="18" style="stroke: black; stroke-width: 4px; fill: white; fill-opacity: 0.95;"/></g><rect x="0" y="0" width="36" height="36" class="djs-hit" style="fill: none; stroke-opacity: 0; stroke: white; stroke-width: 15px;"/><rect x="-6" y="-6" width="48" height="48" class="djs-outline" style="fill: none;"/></g></g><g class="djs-group"><g class="djs-element djs-shape" data-element-id="SubProcess_11fkrio" style="display: block;" transform="translate(881 539)"><g class="djs-visual"><rect x="0" y="0" width="404" height="165" rx="10" ry="10" style="stroke: black; stroke-width: 2px; fill: white; fill-opacity: 0.95;"/><text lineHeight="1.2" class="djs-label" style="font-family: Arial, sans-serif; font-size: 12px; font-weight: normal; fill: black;"><tspan x="136.9609375" y="15.799999999999999">cast vote for delegations</tspan></text><path d="m 202,158 c 3.526979,0 6.386161,-2.829858 6.386161,-6.320661 0,-3.490806 -2.859182,-6.320661 -6.386161,-6.320661 -3.526978,0 -6.38616,2.829855 -6.38616,6.320661 0,1.745402 0.714797,3.325567 1.870463,4.469381 0.577834,0.571908 1.265885,1.034728 2.029916,1.35457 l -0.718163,-3.909793 m 0.718163,3.909793 -3.885211,0.802902" data-marker="loop" style="fill: white; stroke-width: 1px; stroke: black; stroke-linecap: round; stroke-miterlimit: 0.5;"/></g><rect x="0" y="0" width="404" height="165" class="djs-hit" style="fill: none; stroke-opacity: 0; stroke: white; stroke-width: 15px;"/><rect x="-6" y="-6" width="416" height="177" class="djs-outline" style="fill: none;"/></g><g class="djs-children"><g class="djs-group"><g class="djs-element djs-connection" data-element-id="SequenceFlow_0wyd6w6" style="display: block;"><g class="djs-visual"><path d="m  1001,620L1051,620 " style="fill: none; stroke-width: 2px; stroke: black; stroke-linejoin: round; marker-end: url('#sequenceflow-end-white-black-5995rk008unxhlf681x07bbo9');"/></g><polyline points="1001,620 1051,620 " class="djs-hit" style="fill: none; stroke-opacity: 0; stroke: white; stroke-width: 15px;"/><rect x="995" y="614" width="62" height="12" class="djs-outline" style="fill: none;"/></g></g><g class="djs-group"><g class="djs-element djs-connection" data-element-id="SequenceFlow_1toulhl" style="display: block;"><g class="djs-visual"><path d="m  1101,620L1163,620 " style="fill: none; stroke-width: 2px; stroke: black; stroke-linejoin: round; marker-end: url('#sequenceflow-end-white-black-5995rk008unxhlf681x07bbo9');"/></g><polyline points="1101,620 1163,620 " class="djs-hit" style="fill: none; stroke-opacity: 0; stroke: white; stroke-width: 15px;"/><rect x="1095" y="614" width="74" height="12" class="djs-outline" style="fill: none;"/></g></g><g class="djs-group"><g class="djs-element djs-shape" data-element-id="Task_1c80f48" style="display: block;" transform="translate(901 580)"><g class="djs-visual"><rect x="0" y="0" width="100" height="80" rx="10" ry="10" style="stroke: black; stroke-width: 2px; fill: white; fill-opacity: 0.95;"/><text lineHeight="1.2" class="djs-label" style="font-family: Arial, sans-serif; font-size: 12px; font-weight: normal; fill: black;"><tspan x="29.65625" y="14.799999999999999">validate </tspan><tspan x="23.484375" y="29.199999999999996">delegated </tspan><tspan x="14.984375" y="43.599999999999994">voterToken A </tspan><tspan x="12.1484375" y="57.99999999999999">against stored </tspan><tspan x="19.9921875" y="72.39999999999999">checksums</tspan></text></g><rect x="0" y="0" width="100" height="80" class="djs-hit" style="fill: none; stroke-opacity: 0; stroke: white; stroke-width: 15px;"/><rect x="-6" y="-6" width="112" height="92" class="djs-outline" style="fill: none;"/></g></g><g class="djs-group"><g class="djs-element djs-shape" data-element-id="Task_0vno5rk" style="display: block;" transform="translate(1163 580)"><g class="djs-visual"><rect x="0" y="0" width="100" height="80" rx="10" ry="10" style="stroke: black; stroke-width: 2px; fill: white; fill-opacity: 0.95;"/><text lineHeight="1.2" class="djs-label" style="font-family: Arial, sans-serif; font-size: 12px; font-weight: normal; fill: black;"><tspan x="11.484375" y="36.4">store ballot for </tspan><tspan x="7.140625" y="50.8">delegated token</tspan></text></g><rect x="0" y="0" width="100" height="80" class="djs-hit" style="fill: none; stroke-opacity: 0; stroke: white; stroke-width: 15px;"/><rect x="-6" y="-6" width="112" height="92" class="djs-outline" style="fill: none;"/></g></g><g class="djs-group"><g class="djs-element djs-shape" data-element-id="ExclusiveGateway_0j1gcwx" style="display: block;" transform="translate(1051 595)"><g class="djs-visual"><polygon points="25,0 50,25 25,50 0,25" style="stroke: black; stroke-width: 2px; fill: white; fill-opacity: 0.95;"/><path d="m 16,15 7.42857142857143,9.714285714285715 -7.42857142857143,9.714285714285715 3.428571428571429,0 5.714285714285715,-7.464228571428572 5.714285714285715,7.464228571428572 3.428571428571429,0 -7.42857142857143,-9.714285714285715 7.42857142857143,-9.714285714285715 -3.428571428571429,0 -5.714285714285715,7.464228571428572 -5.714285714285715,-7.464228571428572 -3.428571428571429,0 z" style="fill: black; stroke-width: 1px; stroke: black;"/></g><rect x="0" y="0" width="50" height="50" class="djs-hit" style="fill: none; stroke-opacity: 0; stroke: white; stroke-width: 15px;"/><rect x="-6" y="-6" width="62" height="62" class="djs-outline" style="fill: none;"/></g></g><g class="djs-group"><g class="djs-element djs-shape" data-element-id="ExclusiveGateway_0j1gcwx_label" style="display: block;" transform="translate(1036 652)"><g class="djs-visual"><text lineHeight="1.2" class="djs-label" style="font-family: Arial, sans-serif; font-size: 11px; font-weight: normal; fill: black;"><tspan x="0" y="9.899999999999999">ownVote exists?</tspan></text></g><rect x="0" y="0" width="80" height="14" class="djs-hit" style="fill: none; stroke-opacity: 0; stroke: white; stroke-width: 15px;"/><rect x="-6" y="-6" width="92" height="26" class="djs-outline" style="fill: none;"/></g></g><g class="djs-group"><g class="djs-element djs-shape" data-element-id="SequenceFlow_1toulhl_label" style="display: block;" transform="translate(1124 602)"><g class="djs-visual"><text lineHeight="1.2" class="djs-label" style="font-family: Arial, sans-serif; font-size: 11px; font-weight: normal; fill: black;"><tspan x="0" y="9.899999999999999">NO</tspan></text></g><rect x="0" y="0" width="17" height="14" class="djs-hit" style="fill: none; stroke-opacity: 0; stroke: white; stroke-width: 15px;"/><rect x="-6" y="-6" width="29" height="26" class="djs-outline" style="fill: none;"/></g></g></g></g><g class="djs-group"><g class="djs-element djs-shape" data-element-id="StartEvent_1p32udv_label" style="display: block;" transform="translate(470 307)"><g class="djs-visual"><text lineHeight="1.2" class="djs-label" style="font-family: Arial, sans-serif; font-size: 11px; font-weight: normal; fill: black;"><tspan x="0" y="9.899999999999999">Cast own vote</tspan></text></g><rect x="0" y="0" width="70" height="14" class="djs-hit" style="fill: none; stroke-opacity: 0; stroke: white; stroke-width: 15px;"/><rect x="-6" y="-6" width="82" height="26" class="djs-outline" style="fill: none;"/></g></g><g class="djs-group"><g class="djs-element djs-connection" data-element-id="Association_0m07aey" style="display: block;"><g class="djs-visual"><polyline points="881,594 824,582 " style="fill: none; stroke: black; stroke-width: 2px; stroke-dasharray: 0.5, 5; stroke-linecap: round; stroke-linejoin: round;"/></g><polyline points="881,594 824,582 " class="djs-hit" style="fill: none; stroke-opacity: 0; stroke: white; stroke-width: 15px;"/><rect x="818" y="576" width="69" height="24" class="djs-outline" style="fill: none;"/></g></g><g class="djs-group"><g class="djs-element djs-shape" data-element-id="EndEvent_0ztn5o2_label" style="display: block;" transform="translate(1408 134)"><g class="djs-visual"><text lineHeight="1.2" class="djs-label" style="font-family: Arial, sans-serif; font-size: 11px; font-weight: normal; fill: black;"><tspan x="4.7109375" y="9.899999999999999">vote has been </tspan><tspan x="0" y="23.099999999999998">casted by proxy</tspan></text></g><rect x="0" y="0" width="78" height="27" class="djs-hit" style="fill: none; stroke-opacity: 0; stroke: white; stroke-width: 15px;"/><rect x="-6" y="-6" width="90" height="39" class="djs-outline" style="fill: none;"/></g></g><g class="djs-group"><g class="djs-element djs-shape" data-element-id="EndEvent_04e6n7q_label" style="display: block;" transform="translate(1192 307)"><g class="djs-visual"><text lineHeight="1.2" class="djs-label" style="font-family: Arial, sans-serif; font-size: 11px; font-weight: normal; fill: black;"><tspan x="0" y="9.899999999999999">own vote casted</tspan></text></g><rect x="0" y="0" width="80" height="14" class="djs-hit" style="fill: none; stroke-opacity: 0; stroke: white; stroke-width: 15px;"/><rect x="-6" y="-6" width="92" height="26" class="djs-outline" style="fill: none;"/></g></g><g class="djs-group"><g class="djs-element djs-shape" data-element-id="SequenceFlow_1ccajk4_label" style="display: block;" transform="translate(704 342)"><g class="djs-visual"><text lineHeight="1.2" class="djs-label" style="font-family: Arial, sans-serif; font-size: 11px; font-weight: normal; fill: black;"><tspan x="0" y="9.899999999999999">voterToken B</tspan></text></g><rect x="0" y="0" width="64" height="14" class="djs-hit" style="fill: none; stroke-opacity: 0; stroke: white; stroke-width: 15px;"/><rect x="-6" y="-6" width="76" height="26" class="djs-outline" style="fill: none;"/></g></g></g></g><g class="djs-drag-group" style="pointer-events: none;" transform="translate(-4 77)"/><g class="djs-drag-group" style="pointer-events: none;" transform="translate(6 7)"/><g class="djs-drag-group" style="pointer-events: none;" transform="translate(13 2)"/><g class="djs-drag-group" style="pointer-events: none;" transform="translate(0 14)"/><g class="djs-drag-group" style="pointer-events: none;" transform="translate(0 -14)"/><g class="djs-drag-group" style="pointer-events: none;" transform="translate(0 36)"/><g class="djs-drag-group" style="pointer-events: none;" transform="translate(57 -61)"/><g class="djs-drag-group" style="pointer-events: none;" transform="translate(2 -61)"/><g class="djs-drag-group" style="pointer-events: none;" transform="translate(-32 5)"/><g class="djs-drag-group" style="pointer-events: none;" transform="translate(11 1)"/><g class="djs-drag-group" style="pointer-events: none;" transform="translate(0 7)"/><g class="djs-drag-group" style="pointer-events: none;" transform="translate(21 -2)"/><g class="djs-drag-group" style="pointer-events: none;" transform="translate(0 -30)"/><g class="djs-drag-group" style="pointer-events: none;" transform="translate(-150 115)"/><g class="djs-drag-group" style="pointer-events: none;" transform="translate(0 -13)"/><g class="djs-drag-group" style="pointer-events: none;" transform="translate(-150 -102)"/><g class="djs-drag-group" style="pointer-events: none;" transform="translate(-150 -322)"/><g class="djs-drag-group" style="pointer-events: none;" transform="translate(-54 -13)"/><g class="djs-drag-group" style="pointer-events: none;" transform="translate(21 -99)"/><g class="djs-drag-group" style="pointer-events: none;" transform="translate(0 70)"/><g class="djs-drag-group" style="pointer-events: none;" transform="translate(0 41)"/><g class="djs-drag-group" style="pointer-events: none;" transform="translate(2 -38)"/><g class="djs-drag-group" style="pointer-events: none;" transform="translate(78 -6)"/><g class="djs-drag-group" style="pointer-events: none;" transform="translate(-150 190)"/><g class="djs-drag-group" style="pointer-events: none;" transform="translate(-150 102)"/><g class="djs-drag-group" style="pointer-events: none;" transform="translate(150 -102)"/><g class="djs-drag-group" style="pointer-events: none;" transform="translate(-150 -190)"/><g class="djs-drag-group" style="pointer-events: none;" transform="translate(-1 190)"/><g class="djs-drag-group" style="pointer-events: none;" transform="translate(-149 -190)"/><g class="djs-drag-group" style="pointer-events: none;" transform="translate(11 66)"/><g class="djs-drag-group" style="pointer-events: none;" transform="translate(8 -10)"/><g class="djs-drag-group" style="pointer-events: none;" transform="translate(-147 -1)"/><g class="djs-drag-group" style="pointer-events: none;" transform="translate(-486 143)"/><g class="djs-drag-group" style="pointer-events: none;" transform="translate(4 -46)"/><g class="djs-drag-group" style="pointer-events: none;" transform="translate(14 14)"/><g class="djs-drag-group" style="pointer-events: none;" transform="translate(-23 -2)"/><g class="djs-drag-group" style="pointer-events: none;" transform="translate(-13 -14)"/><g class="djs-drag-group" style="pointer-events: none;" transform="translate(-19 0)"/><g class="djs-drag-group" style="pointer-events: none;" transform="translate(21 -42)"/><g class="djs-drag-group" style="pointer-events: none;" transform="translate(12 135)"/><g class="djs-drag-group" style="pointer-events: none;" transform="translate(1 -47)"/><g class="djs-drag-group" style="pointer-events: none;" transform="translate(44 -478)"/><g class="djs-drag-group" style="pointer-events: none;" transform="translate(-11 0)"/><g class="djs-drag-group" style="pointer-events: none;" transform="translate(-40 0)"/><g class="djs-drag-group" style="pointer-events: none;" transform="translate(51 0)"/><g class="djs-drag-group" style="pointer-events: none;" transform="translate(43 80)"/><g class="djs-drag-group" style="pointer-events: none;" transform="translate(-52 0)"/><g class="djs-drag-group" style="pointer-events: none;" transform="translate(-30 -87)"/><g class="djs-drag-group" style="pointer-events: none;" transform="translate(-83 -100)"/><g class="djs-drag-group" style="pointer-events: none;" transform="translate(33 16)"/><g class="djs-drag-group" style="pointer-events: none;" transform="translate(434 -75)"/><g class="djs-drag-group" style="pointer-events: none;" transform="translate(10 1)"/><g class="djs-drag-group" style="pointer-events: none;" transform="translate(-73 77)"/><g class="djs-drag-group" style="pointer-events: none;" transform="translate(150 62)"/><g class="djs-drag-group" style="pointer-events: none;" transform="translate(242 66)"/><g class="djs-drag-group" style="pointer-events: none;" transform="translate(192 66)"/><g class="djs-drag-group" style="pointer-events: none;" transform="translate(-147 -32)"/><g class="djs-drag-group" style="pointer-events: none;" transform="translate(-91 -42)"/><g class="djs-drag-group" style="pointer-events: none;" transform="translate(0 -44)"/><g class="djs-drag-group" style="pointer-events: none;" transform="translate(3 20)"/><g class="djs-drag-group" style="pointer-events: none;" transform="translate(0 185)"/><g class="djs-drag-group" style="pointer-events: none;" transform="translate(-31 47)"/><g class="djs-drag-group" style="pointer-events: none;" transform="translate(0 -30)"/><g class="djs-drag-group" style="pointer-events: none;" transform="translate(-67 0)"/><g class="djs-drag-group" style="pointer-events: none;" transform="translate(-45 0)"/><g class="djs-drag-group" style="pointer-events: none;" transform="translate(11 0)"/><g class="djs-drag-group" style="pointer-events: none;" transform="translate(-101 -101)"/><g class="djs-drag-group" style="pointer-events: none;" transform="translate(0 35)"/><g class="djs-drag-group" style="pointer-events: none;" transform="translate(-25 16)"/><g class="djs-drag-group" style="pointer-events: none;" transform="translate(-423 58)"/><g class="djs-drag-group" style="pointer-events: none;" transform="translate(431 -69)"/><g class="djs-drag-group" style="pointer-events: none;" transform="translate(3 28)"/><g class="djs-drag-group" style="pointer-events: none;" transform="translate(3 -10)"/><g class="djs-drag-group" style="pointer-events: none;" transform="translate(12 159)"/><g class="djs-drag-group" style="pointer-events: none;" transform="translate(38 -15)"/><g class="djs-drag-group" style="pointer-events: none;" transform="translate(-13 26)"/><g class="djs-drag-group" style="pointer-events: none;" transform="translate(43 -55)"/><g class="djs-drag-group" style="pointer-events: none;" transform="translate(-493 -31)"/><g class="djs-drag-group" style="pointer-events: none;" transform="translate(6 -72)"/><g class="djs-drag-group" style="pointer-events: none;" transform="translate(112 0)"/><g class="djs-drag-group" style="pointer-events: none;" transform="translate(51 -61)"/><g class="djs-drag-group" style="pointer-events: none;" transform="translate(14 0)"/><g class="djs-drag-group" style="pointer-events: none;" transform="translate(-51 -32)"/><g class="djs-drag-group" style="pointer-events: none;" transform="translate(2 89)"/><g class="djs-drag-group" style="pointer-events: none;" transform="translate(3 -83)"/></svg>